<svg width="387" height="301" viewBox="0 0 387 301" fill="none" xmlns="http://www.w3.org/2000/svg">
<path d="M4.5 155.161L47.8084 118.373L75.6495 132.387L128.238 106.11H183.92L230.322 81.5843L251.976 106.11L295.285 43.044L344.78 32.533L384.995 1" stroke="#C1535E" stroke-width="2"/>
<line x1="5" y1="10.9919" x2="5" y2="155.161" stroke="#E0E0E0"/>
<line x1="81.0991" y1="10.9919" x2="81.0991" y2="155.161" stroke="#E0E0E0"/>
<line x1="157.198" y1="10.9919" x2="157.198" y2="155.161" stroke="#E0E0E0"/>
<line x1="233.297" y1="10.9919" x2="233.297" y2="155.161" stroke="#E0E0E0"/>
<line x1="309.396" y1="10.9919" x2="309.396" y2="155.161" stroke="#E0E0E0"/>
<line x1="385.495" y1="10.9919" x2="385.495" y2="155.161" stroke="#E0E0E0"/>
<path d="M195.433 209.536C195.433 210.161 194.926 210.668 194.301 210.668C193.675 210.668 193.168 210.161 193.168 209.536C193.168 208.91 193.675 208.404 194.301 208.404C194.926 208.404 195.433 208.91 195.433 209.536Z" fill="#404040"/>
<path d="M195.433 209.536C195.433 210.161 194.926 210.668 194.301 210.668C193.675 210.668 193.168 210.161 193.168 209.536C193.168 208.91 193.675 208.404 194.301 208.404C194.926 208.404 195.433 208.91 195.433 209.536Z" fill="#404040"/>
<path d="M188.639 209.536C188.639 210.161 188.132 210.668 187.506 210.668C186.881 210.668 186.374 210.161 186.374 209.536C186.374 208.91 186.881 208.404 187.506 208.404C188.132 208.404 188.639 208.91 188.639 209.536Z" fill="#404040"/>
<path d="M188.639 209.536C188.639 210.161 188.132 210.668 187.506 210.668C186.881 210.668 186.374 210.161 186.374 209.536C186.374 208.91 186.881 208.404 187.506 208.404C188.132 208.404 188.639 208.91 188.639 209.536Z" fill="#404040"/>
<path d="M203.462 270.792C202.977 270.693 202.542 271.341 202.488 272.233C202.351 274.492 202.216 276.737 202.08 278.996C202.026 279.888 202.378 280.706 202.862 280.805C203.347 280.904 203.782 280.256 203.836 279.364C203.972 277.105 204.108 274.845 204.244 272.586C204.298 271.694 203.946 270.891 203.462 270.792Z" fill="#404040"/>
<path d="M214.66 292.194C214.546 292.185 214.428 292.205 214.312 292.243C213.849 292.395 213.597 292.887 213.75 293.35C213.915 293.848 214.076 294.37 214.098 294.899C214.107 295.123 214.092 295.373 213.956 295.562C213.81 295.765 213.568 295.888 213.345 295.986C213.125 296.083 212.89 296.156 212.66 296.228C212.366 296.32 212.071 296.4 211.773 296.482C211.244 296.629 210.718 296.784 210.183 296.91C207.691 297.496 205.135 297.577 202.586 297.508C201.258 297.472 199.913 297.459 198.591 297.311C198.389 297.288 198.148 297.257 197.947 297.222C197.032 297.063 195.431 296.627 195.483 295.421C195.488 295.294 195.516 295.171 195.553 295.051C195.612 294.861 195.703 294.68 195.816 294.517C195.957 294.311 196.129 294.14 196.313 293.972C196.672 293.643 196.7 293.082 196.371 292.723C196.041 292.364 195.48 292.345 195.121 292.674C193.916 293.784 193.223 295.457 194.139 296.985C194.295 297.244 194.484 297.48 194.705 297.685C195.219 298.163 195.866 298.475 196.53 298.687C198.144 299.202 199.91 299.177 201.586 299.241C204.772 299.361 207.974 299.311 211.078 298.504C211.47 298.403 211.858 298.294 212.248 298.186C213.755 297.769 215.531 297.306 215.826 295.522C215.884 295.171 215.873 294.813 215.831 294.461C215.763 293.893 215.606 293.338 215.428 292.797C215.313 292.45 215.003 292.222 214.66 292.194Z" fill="#404040"/>
<path d="M201.841 281.439C201.5 281.393 201.145 281.55 200.958 281.864C200.71 282.283 200.847 282.822 201.266 283.071C202.723 283.935 204.195 284.7 205.895 283.987C206.353 283.794 206.764 283.517 207.16 283.221C207.549 282.928 207.627 282.379 207.335 281.989C207.042 281.599 206.484 281.522 206.094 281.814C205.816 282.024 205.535 282.219 205.212 282.355C204.139 282.806 203.062 282.088 202.165 281.556C202.061 281.494 201.954 281.455 201.841 281.439Z" fill="#404040"/>
<path d="M175.035 293.92C174.813 293.965 174.611 294.091 174.477 294.295C173.489 295.792 172.825 298.077 173.944 299.68C174.13 299.946 174.356 300.171 174.61 300.371C174.813 300.531 175.044 300.654 175.284 300.746C175.866 300.969 176.498 301.017 177.116 300.996C178.402 300.952 179.621 300.562 180.887 300.388C181.818 300.26 182.763 300.22 183.7 300.155C185.678 300.017 187.685 299.876 189.619 299.414C190.895 299.109 192.394 298.633 193.173 297.491C193.589 296.882 193.585 296.211 193.689 295.51C193.76 295.028 193.422 294.582 192.94 294.511C192.458 294.44 192.012 294.77 191.941 295.252C191.902 295.515 191.877 295.779 191.849 296.043C191.837 296.164 191.828 296.308 191.766 296.417C191.559 296.783 191.152 297.004 190.784 297.175C190.028 297.525 189.201 297.714 188.387 297.866C186.707 298.178 184.994 298.298 183.292 298.415C182.349 298.48 181.397 298.516 180.462 298.665C179.397 298.835 178.354 299.148 177.274 299.223C176.799 299.255 176.247 299.269 175.809 299.048C175.309 298.794 175.128 298.225 175.126 297.699C175.124 296.838 175.481 295.977 175.95 295.269C176.219 294.862 176.107 294.314 175.701 294.045C175.497 293.911 175.256 293.875 175.035 293.92Z" fill="#404040"/>
<path d="M183.101 271.581C182.62 271.528 182.197 271.95 182.152 272.521C181.901 275.755 181.761 278.983 181.74 282.231C181.736 282.804 182.123 283.275 182.606 283.279C183.089 283.284 183.484 282.814 183.488 282.241C183.509 279.051 183.646 275.883 183.892 272.707C183.936 272.136 183.581 271.633 183.101 271.581Z" fill="#404040"/>
<path d="M179.938 284.23C179.715 284.195 179.486 284.246 179.289 284.389C178.66 284.845 178.082 285.353 177.607 285.97C176.972 286.795 176.553 287.749 176.167 288.709C175.619 290.069 175.012 291.454 174.827 292.921C174.717 293.791 174.764 294.696 175.16 295.493C175.301 295.778 175.487 296.04 175.709 296.267C175.897 296.46 176.113 296.626 176.342 296.767C178.102 297.848 180.159 297.072 182.044 296.941C182.781 296.891 183.528 296.918 184.266 296.883C184.822 296.857 185.378 296.823 185.931 296.758C188.188 296.496 191.091 295.801 192.116 293.512C192.243 293.229 192.333 292.935 192.391 292.63C192.473 292.194 192.483 291.747 192.441 291.306C192.382 290.69 192.229 290.11 191.933 289.566C191.447 288.675 190.728 287.94 190.043 287.202C189.675 286.806 189.331 286.383 188.945 286.004C188.46 285.529 187.93 285.113 187.355 284.755C186.941 284.498 186.396 284.632 186.139 285.046C185.882 285.46 186.008 286.005 186.422 286.262C186.889 286.55 187.312 286.885 187.704 287.269C188.071 287.628 188.396 288.025 188.745 288.401C189.264 288.961 189.818 289.505 190.235 290.149C190.78 290.993 190.919 292.199 190.351 293.071C190.045 293.541 189.572 293.879 189.078 294.128C188.434 294.453 187.726 294.651 187.022 294.794C185.926 295.016 184.808 295.109 183.692 295.143C183.103 295.162 182.515 295.136 181.927 295.177C181.616 295.199 181.296 295.24 180.987 295.285C180.678 295.33 180.363 295.389 180.054 295.435C179.087 295.578 177.558 295.83 176.866 294.91C176.442 294.346 176.503 293.533 176.616 292.879C176.828 291.661 177.339 290.507 177.799 289.367C178.149 288.496 178.524 287.621 179.13 286.894C179.477 286.479 179.884 286.129 180.321 285.812C180.715 285.526 180.807 284.975 180.521 284.58C180.377 284.383 180.161 284.266 179.938 284.23Z" fill="#404040"/>
<path d="M180.454 284.006C180.118 284.079 179.838 284.346 179.771 284.705C179.681 285.184 180 285.647 180.479 285.737C181.354 285.901 182.232 286.056 183.126 286.062C183.799 286.066 184.462 285.982 185.124 285.862C185.603 285.775 185.918 285.309 185.831 284.83C185.744 284.35 185.287 284.035 184.807 284.122C184.254 284.223 183.706 284.301 183.142 284.297C182.355 284.291 181.575 284.15 180.803 284.006C180.684 283.983 180.566 283.981 180.454 284.006Z" fill="#404040"/>
<path d="M208.244 284.377C207.904 284.326 207.55 284.471 207.359 284.783C207.104 285.198 207.24 285.745 207.656 286C208.022 286.225 208.413 286.425 208.759 286.679C208.991 286.849 209.18 287.086 209.376 287.292C209.658 287.591 209.942 287.888 210.214 288.196C210.808 288.865 211.408 289.59 211.74 290.431C211.901 290.839 211.983 291.284 211.871 291.715C211.782 292.061 211.426 292.313 211.142 292.488C210.552 292.851 209.867 293.081 209.2 293.256C207.877 293.604 206.52 293.78 205.157 293.874C203.756 293.971 202.374 293.967 200.985 293.76C200.043 293.62 199.06 293.468 198.196 293.047C197.86 292.884 197.449 292.637 197.32 292.257C197.265 292.094 197.324 291.925 197.386 291.77C197.514 291.448 197.676 291.148 197.846 290.846C198.151 290.302 198.505 289.788 198.793 289.233C198.967 288.898 199.096 288.543 199.255 288.2C199.484 287.708 199.742 287.23 200.065 286.792C200.414 286.319 200.835 285.907 201.271 285.515C201.634 285.19 201.662 284.63 201.337 284.267C201.011 283.904 200.451 283.876 200.089 284.201C199.563 284.673 199.067 285.177 198.646 285.747C198.169 286.395 197.805 287.105 197.484 287.84C197.401 288.031 197.323 288.231 197.226 288.417C196.814 289.207 196.281 289.931 195.907 290.745C195.631 291.345 195.434 291.987 195.6 292.647C196.043 294.406 198.15 295.037 199.707 295.339C199.966 295.389 200.229 295.427 200.489 295.467C200.946 295.538 201.407 295.616 201.867 295.655C203.31 295.774 204.773 295.704 206.21 295.56C207.761 295.405 209.335 295.147 210.798 294.595C211.948 294.162 213.228 293.443 213.575 292.169C213.658 291.865 213.699 291.551 213.693 291.236C213.687 290.933 213.64 290.637 213.564 290.345C213.442 289.873 213.242 289.424 213.003 289.001C212.599 288.284 212.081 287.636 211.536 287.022C211.251 286.701 210.954 286.394 210.659 286.082C210.413 285.822 210.169 285.552 209.889 285.328C209.487 285.006 209.013 284.763 208.575 284.494C208.471 284.43 208.357 284.395 208.244 284.377Z" fill="#404040"/>
<path d="M185.989 226.144C185.766 226.179 185.559 226.297 185.415 226.494C181.213 232.237 180.046 239.462 178.306 246.197C177.93 247.653 177.525 249.096 177.033 250.518C176.185 252.965 175.162 255.354 174.435 257.843C174.251 258.473 174.08 259.098 173.911 259.732C173.144 262.622 172.36 266.233 174.519 268.731C174.796 269.052 175.105 269.343 175.451 269.588C177.856 271.295 180.954 270.56 183.684 270.529C185.814 270.505 187.891 271.128 190.027 270.978C191.105 270.903 192.153 270.637 193.19 270.346C194.351 270.019 195.517 269.643 196.727 269.555C197.388 269.507 198.059 269.554 198.717 269.622C200.258 269.779 201.771 270.142 203.304 270.354C203.84 270.428 204.394 270.506 204.935 270.537C205.576 270.574 206.225 270.539 206.866 270.537C207.312 270.536 207.753 270.589 208.198 270.587C209.03 270.584 209.779 270.395 210.404 269.83C210.63 269.625 210.837 269.396 211.012 269.147C211.185 268.901 211.33 268.631 211.453 268.356C212.011 267.111 212.09 265.689 212.019 264.344C211.897 262.031 211.313 259.751 210.587 257.56C209.968 255.691 209.129 253.916 208.157 252.207C206.61 249.487 204.791 246.921 203.379 244.125C201.803 241.004 200.712 237.681 199.391 234.452C199.033 233.576 198.667 232.687 198.268 231.83C197.869 230.975 197.412 230.141 196.986 229.299C196.765 228.865 196.238 228.696 195.804 228.916C195.369 229.137 195.192 229.664 195.412 230.098C195.83 230.923 196.278 231.741 196.669 232.579C197.057 233.41 197.404 234.269 197.751 235.118C199.09 238.391 200.208 241.752 201.805 244.915C203.955 249.172 207.048 252.934 208.681 257.452C209.488 259.683 210.128 262.057 210.254 264.436C210.311 265.495 210.279 266.647 209.838 267.632C209.737 267.858 209.612 268.081 209.455 268.273C209.329 268.428 209.184 268.585 209.006 268.681C208.695 268.847 208.296 268.834 207.957 268.822C207.591 268.81 207.232 268.772 206.866 268.772C206.259 268.773 205.641 268.807 205.035 268.772C204.789 268.759 204.548 268.716 204.303 268.689C203.417 268.592 202.541 268.447 201.664 268.29C199.812 267.957 197.896 267.605 196.012 267.857C194.022 268.123 192.16 269 190.16 269.197C187.983 269.411 185.836 268.739 183.659 268.764C183.092 268.771 182.525 268.818 181.96 268.856C179.952 268.988 177.329 269.296 175.851 267.582C174.905 266.486 174.793 264.979 174.927 263.595C175.05 262.317 175.377 261.069 175.709 259.832C175.989 258.79 176.291 257.757 176.641 256.736C177.291 254.843 178.051 252.991 178.706 251.1C179.321 249.324 179.806 247.504 180.262 245.681C181.033 242.608 181.714 239.514 182.643 236.483C183.615 233.314 184.87 230.224 186.839 227.535C187.126 227.141 187.04 226.59 186.647 226.303C186.45 226.158 186.213 226.11 185.989 226.144Z" fill="#404040"/>
<path d="M188.869 199.016C184.686 199.261 181.392 202.282 179.579 205.883C177.063 210.883 177.071 217.488 181.036 221.757C181.768 222.546 182.609 223.233 183.525 223.797C184.524 224.411 185.608 224.883 186.713 225.27C189.663 226.303 192.953 226.644 195.978 225.72C202.895 223.607 207.381 215.028 204.993 208.164C204.51 206.776 203.747 205.5 202.762 204.41C202.043 203.613 201.216 202.935 200.215 202.529C199.275 202.147 200.211 202.529 195.845 201.105C195.829 201.095 195.811 201.097 195.795 201.089C191.501 199.24 193.003 199.532 191.416 199.207C190.581 199.036 189.721 198.966 188.869 199.016ZM188.977 200.78C189.676 200.74 188.972 200.785 194.904 202.603C194.906 202.605 194.91 202.602 194.912 202.603C194.925 202.611 194.941 202.613 194.954 202.62C197.314 203.597 196.501 203.417 197.376 203.619C198.101 203.786 198.855 203.886 199.549 204.168C200.378 204.506 201.036 205.102 201.613 205.775C202.364 206.649 202.949 207.658 203.328 208.747C203.979 210.618 204.014 212.655 203.603 214.582C202.709 218.767 199.648 222.761 195.462 224.038C192.644 224.898 189.576 224.478 186.863 223.447C186.031 223.131 185.208 222.757 184.449 222.29C183.669 221.81 182.958 221.23 182.334 220.559C178.705 216.651 178.986 210.435 181.502 206.025C183.062 203.29 185.715 200.971 188.977 200.78Z" fill="#404040"/>
<path d="M150.139 209.536C150.139 210.161 149.632 210.668 149.007 210.668C148.381 210.668 147.874 210.161 147.874 209.536C147.874 208.91 148.381 208.404 149.007 208.404C149.632 208.404 150.139 208.91 150.139 209.536Z" fill="#404040"/>
<path d="M150.139 209.536C150.139 210.161 149.632 210.668 149.007 210.668C148.381 210.668 147.874 210.161 147.874 209.536C147.874 208.91 148.381 208.404 149.007 208.404C149.632 208.404 150.139 208.91 150.139 209.536Z" fill="#404040"/>
<path d="M143.345 209.536C143.345 210.161 142.838 210.668 142.212 210.668C141.587 210.668 141.08 210.161 141.08 209.536C141.08 208.91 141.587 208.404 142.212 208.404C142.838 208.404 143.345 208.91 143.345 209.536Z" fill="#404040"/>
<path d="M143.345 209.536C143.345 210.161 142.838 210.668 142.212 210.668C141.587 210.668 141.08 210.161 141.08 209.536C141.08 208.91 141.587 208.404 142.212 208.404C142.838 208.404 143.345 208.91 143.345 209.536Z" fill="#404040"/>
<path d="M158.168 270.792C157.684 270.693 157.248 271.341 157.194 272.233C157.058 274.493 156.923 276.737 156.786 278.996C156.732 279.889 157.085 280.707 157.569 280.806C158.053 280.905 158.489 280.257 158.543 279.364C158.679 277.105 158.814 274.845 158.95 272.586C159.004 271.694 158.652 270.891 158.168 270.792Z" fill="#404040"/>
<path d="M169.366 292.194C169.252 292.185 169.134 292.205 169.018 292.243C168.555 292.395 168.303 292.887 168.456 293.35C168.621 293.848 168.782 294.37 168.804 294.899C168.813 295.123 168.798 295.373 168.662 295.562C168.516 295.765 168.274 295.888 168.051 295.986C167.831 296.083 167.596 296.156 167.367 296.228C167.072 296.32 166.777 296.4 166.479 296.482C165.95 296.629 165.424 296.784 164.889 296.91C162.397 297.496 159.841 297.577 157.292 297.508C155.964 297.472 154.619 297.459 153.297 297.311C153.095 297.288 152.854 297.257 152.653 297.222C151.739 297.063 150.137 296.627 150.189 295.421C150.194 295.294 150.222 295.171 150.259 295.051C150.318 294.861 150.409 294.68 150.522 294.517C150.663 294.311 150.835 294.14 151.019 293.972C151.378 293.643 151.406 293.082 151.077 292.723C150.747 292.364 150.186 292.345 149.827 292.674C148.622 293.784 147.929 295.457 148.845 296.985C149.001 297.244 149.19 297.48 149.411 297.685C149.925 298.163 150.572 298.475 151.236 298.687C152.85 299.202 154.616 299.177 156.292 299.241C159.478 299.361 162.68 299.311 165.785 298.504C166.176 298.403 166.564 298.294 166.954 298.186C168.461 297.769 170.237 297.306 170.532 295.522C170.59 295.171 170.579 294.813 170.537 294.461C170.469 293.893 170.312 293.338 170.134 292.797C170.019 292.45 169.709 292.222 169.366 292.194Z" fill="#404040"/>
<path d="M156.547 281.439C156.206 281.393 155.851 281.55 155.664 281.864C155.416 282.283 155.553 282.822 155.972 283.071C157.429 283.935 158.901 284.7 160.601 283.987C161.059 283.794 161.47 283.517 161.866 283.221C162.256 282.928 162.333 282.379 162.041 281.989C161.748 281.599 161.19 281.522 160.8 281.814C160.522 282.024 160.241 282.219 159.918 282.355C158.845 282.806 157.768 282.088 156.871 281.556C156.767 281.494 156.66 281.455 156.547 281.439Z" fill="#404040"/>
<path d="M129.741 293.92C129.519 293.965 129.317 294.091 129.183 294.295C128.195 295.792 127.531 298.077 128.65 299.68C128.836 299.946 129.062 300.171 129.316 300.371C129.519 300.531 129.75 300.654 129.99 300.746C130.572 300.969 131.204 301.017 131.822 300.996C133.108 300.952 134.327 300.562 135.593 300.388C136.524 300.26 137.469 300.22 138.406 300.155C140.384 300.017 142.391 299.876 144.325 299.414C145.601 299.109 147.1 298.633 147.879 297.491C148.295 296.882 148.291 296.211 148.395 295.51C148.466 295.028 148.128 294.582 147.646 294.511C147.164 294.44 146.718 294.77 146.647 295.252C146.609 295.515 146.583 295.779 146.556 296.043C146.543 296.164 146.534 296.308 146.472 296.417C146.265 296.783 145.858 297.004 145.49 297.175C144.734 297.525 143.907 297.714 143.093 297.866C141.413 298.178 139.7 298.298 137.998 298.415C137.055 298.48 136.103 298.516 135.168 298.665C134.103 298.835 133.06 299.148 131.98 299.223C131.505 299.255 130.953 299.269 130.515 299.048C130.015 298.794 129.834 298.225 129.832 297.699C129.83 296.838 130.187 295.977 130.656 295.269C130.925 294.862 130.813 294.314 130.407 294.045C130.203 293.911 129.962 293.875 129.741 293.92Z" fill="#404040"/>
<path d="M137.807 271.581C137.326 271.528 136.903 271.95 136.858 272.521C136.608 275.755 136.467 278.983 136.446 282.231C136.442 282.804 136.829 283.275 137.312 283.279C137.795 283.284 138.19 282.814 138.194 282.241C138.215 279.051 138.352 275.883 138.598 272.707C138.642 272.136 138.287 271.633 137.807 271.581Z" fill="#404040"/>
<path d="M134.644 284.23C134.421 284.195 134.192 284.246 133.995 284.389C133.366 284.845 132.789 285.353 132.313 285.97C131.678 286.795 131.26 287.749 130.873 288.709C130.325 290.069 129.718 291.454 129.533 292.921C129.423 293.791 129.47 294.696 129.866 295.493C130.007 295.778 130.193 296.04 130.415 296.267C130.603 296.46 130.819 296.626 131.048 296.767C132.809 297.848 134.865 297.072 136.75 296.941C137.487 296.891 138.234 296.918 138.972 296.883C139.528 296.857 140.085 296.823 140.637 296.758C142.894 296.496 145.797 295.801 146.822 293.512C146.949 293.229 147.039 292.935 147.097 292.63C147.179 292.194 147.189 291.747 147.147 291.306C147.088 290.69 146.935 290.11 146.639 289.566C146.153 288.675 145.434 287.94 144.749 287.202C144.381 286.806 144.037 286.383 143.651 286.004C143.166 285.529 142.636 285.113 142.061 284.755C141.647 284.498 141.102 284.632 140.845 285.046C140.588 285.46 140.714 286.005 141.128 286.262C141.595 286.55 142.018 286.885 142.41 287.269C142.777 287.628 143.102 288.025 143.451 288.401C143.97 288.961 144.524 289.505 144.941 290.149C145.486 290.993 145.625 292.199 145.057 293.071C144.751 293.541 144.278 293.879 143.784 294.128C143.14 294.453 142.432 294.651 141.728 294.794C140.632 295.016 139.514 295.109 138.398 295.143C137.809 295.162 137.222 295.136 136.633 295.177C136.322 295.199 136.002 295.24 135.693 295.285C135.384 295.33 135.069 295.389 134.76 295.435C133.793 295.578 132.264 295.83 131.572 294.91C131.148 294.346 131.209 293.533 131.322 292.879C131.534 291.661 132.045 290.507 132.505 289.367C132.855 288.496 133.23 287.621 133.836 286.894C134.183 286.479 134.591 286.129 135.027 285.812C135.421 285.526 135.513 284.975 135.227 284.58C135.083 284.383 134.867 284.266 134.644 284.23Z" fill="#404040"/>
<path d="M135.16 284.006C134.824 284.079 134.544 284.346 134.477 284.705C134.387 285.184 134.706 285.647 135.185 285.737C136.06 285.901 136.938 286.056 137.832 286.062C138.505 286.066 139.168 285.982 139.83 285.862C140.309 285.775 140.624 285.309 140.537 284.83C140.45 284.35 139.993 284.035 139.513 284.122C138.96 284.223 138.412 284.301 137.848 284.297C137.061 284.291 136.281 284.15 135.509 284.006C135.39 283.983 135.272 283.981 135.16 284.006Z" fill="#404040"/>
<path d="M162.95 284.377C162.61 284.326 162.256 284.471 162.065 284.783C161.81 285.198 161.946 285.745 162.362 286C162.728 286.225 163.119 286.425 163.465 286.679C163.697 286.849 163.886 287.086 164.082 287.292C164.364 287.591 164.648 287.888 164.92 288.196C165.514 288.865 166.114 289.59 166.446 290.431C166.607 290.839 166.689 291.284 166.578 291.715C166.488 292.061 166.132 292.313 165.848 292.488C165.258 292.851 164.573 293.081 163.906 293.256C162.583 293.604 161.226 293.78 159.863 293.874C158.462 293.971 157.08 293.967 155.691 293.76C154.749 293.62 153.766 293.468 152.902 293.047C152.566 292.884 152.155 292.637 152.026 292.257C151.972 292.094 152.03 291.925 152.092 291.77C152.22 291.448 152.382 291.148 152.552 290.846C152.857 290.302 153.211 289.788 153.499 289.233C153.673 288.898 153.803 288.543 153.961 288.2C154.19 287.708 154.448 287.23 154.771 286.792C155.12 286.319 155.541 285.907 155.977 285.515C156.34 285.19 156.368 284.63 156.043 284.267C155.717 283.904 155.157 283.876 154.795 284.201C154.269 284.673 153.773 285.177 153.353 285.747C152.875 286.395 152.511 287.105 152.19 287.84C152.107 288.031 152.029 288.231 151.932 288.417C151.52 289.207 150.987 289.931 150.613 290.745C150.337 291.345 150.14 291.987 150.306 292.647C150.749 294.406 152.856 295.037 154.413 295.339C154.672 295.389 154.935 295.427 155.195 295.467C155.652 295.538 156.113 295.616 156.573 295.655C158.016 295.774 159.479 295.704 160.916 295.56C162.467 295.405 164.041 295.147 165.505 294.595C166.654 294.162 167.934 293.443 168.281 292.169C168.364 291.865 168.405 291.551 168.399 291.236C168.393 290.933 168.346 290.637 168.27 290.345C168.148 289.873 167.948 289.424 167.71 289.001C167.305 288.284 166.787 287.636 166.242 287.022C165.957 286.701 165.66 286.394 165.365 286.082C165.119 285.822 164.875 285.552 164.595 285.328C164.193 285.006 163.719 284.763 163.281 284.494C163.178 284.43 163.063 284.395 162.95 284.377Z" fill="#404040"/>
<path d="M140.695 226.145C140.472 226.179 140.265 226.297 140.121 226.494C135.919 232.237 134.752 239.463 133.012 246.197C132.636 247.653 132.231 249.097 131.739 250.518C130.891 252.965 129.868 255.354 129.141 257.843C128.957 258.474 128.786 259.098 128.617 259.733C127.85 262.622 127.066 266.234 129.225 268.731C129.502 269.052 129.811 269.343 130.157 269.589C132.562 271.295 135.66 270.56 138.39 270.529C140.52 270.505 142.597 271.129 144.733 270.978C145.811 270.903 146.859 270.637 147.896 270.346C149.057 270.02 150.223 269.643 151.433 269.555C152.094 269.507 152.765 269.554 153.423 269.622C154.965 269.779 156.477 270.142 158.01 270.354C158.546 270.429 159.1 270.506 159.641 270.537C160.282 270.574 160.931 270.539 161.572 270.537C162.018 270.536 162.459 270.589 162.904 270.587C163.736 270.584 164.485 270.395 165.11 269.83C165.336 269.626 165.543 269.396 165.718 269.147C165.891 268.901 166.036 268.631 166.159 268.357C166.717 267.112 166.796 265.689 166.725 264.344C166.603 262.032 166.019 259.751 165.293 257.56C164.674 255.692 163.835 253.917 162.863 252.208C161.316 249.487 159.497 246.922 158.085 244.125C156.509 241.004 155.418 237.681 154.097 234.452C153.739 233.577 153.373 232.687 152.974 231.83C152.575 230.975 152.118 230.141 151.692 229.3C151.471 228.865 150.944 228.696 150.51 228.916C150.075 229.137 149.898 229.664 150.118 230.099C150.536 230.923 150.984 231.741 151.375 232.579C151.763 233.41 152.11 234.269 152.457 235.118C153.796 238.391 154.914 241.752 156.511 244.916C158.661 249.173 161.754 252.935 163.387 257.452C164.194 259.683 164.834 262.057 164.96 264.436C165.017 265.495 164.986 266.647 164.544 267.632C164.443 267.858 164.318 268.081 164.161 268.273C164.035 268.428 163.89 268.586 163.712 268.681C163.401 268.847 163.002 268.834 162.663 268.823C162.297 268.81 161.938 268.773 161.572 268.773C160.965 268.773 160.347 268.807 159.741 268.773C159.495 268.759 159.254 268.716 159.009 268.69C158.123 268.592 157.247 268.447 156.37 268.29C154.518 267.957 152.602 267.605 150.718 267.857C148.728 268.123 146.866 269.001 144.866 269.197C142.689 269.411 140.542 268.74 138.365 268.764C137.798 268.771 137.232 268.819 136.667 268.856C134.658 268.989 132.035 269.296 130.557 267.582C129.611 266.487 129.499 264.98 129.633 263.595C129.756 262.317 130.083 261.069 130.415 259.833C130.695 258.79 130.997 257.757 131.347 256.736C131.997 254.844 132.757 252.991 133.412 251.101C134.027 249.324 134.512 247.504 134.968 245.681C135.739 242.608 136.42 239.514 137.349 236.483C138.321 233.314 139.576 230.224 141.545 227.535C141.832 227.142 141.746 226.591 141.353 226.303C141.157 226.159 140.919 226.11 140.695 226.145Z" fill="#404040"/>
<path d="M143.575 199.016C139.392 199.261 136.098 202.282 134.286 205.883C131.769 210.883 131.778 217.488 135.742 221.757C136.474 222.546 137.316 223.233 138.231 223.797C139.23 224.411 140.314 224.883 141.42 225.27C144.37 226.303 147.659 226.644 150.684 225.72C157.602 223.607 162.087 215.028 159.699 208.164C159.217 206.776 158.453 205.5 157.469 204.41C156.749 203.613 155.923 202.935 154.921 202.529C153.982 202.147 154.918 202.529 150.551 201.105C150.535 201.095 150.517 201.097 150.501 201.089C146.207 199.24 147.709 199.532 146.123 199.207C145.287 199.036 144.427 198.966 143.575 199.016ZM143.684 200.78C144.382 200.74 143.679 200.785 149.611 202.603C149.612 202.605 149.617 202.602 149.619 202.603C149.632 202.611 149.647 202.613 149.66 202.62C152.021 203.597 151.208 203.417 152.083 203.619C152.808 203.786 153.562 203.886 154.255 204.168C155.085 204.506 155.742 205.102 156.32 205.775C157.071 206.649 157.656 207.658 158.035 208.747C158.685 210.618 158.721 212.655 158.309 214.582C157.416 218.767 154.354 222.761 150.168 224.038C147.35 224.898 144.282 224.478 141.569 223.447C140.737 223.131 139.915 222.757 139.155 222.29C138.375 221.81 137.665 221.23 137.041 220.559C133.412 216.651 133.693 210.435 136.209 206.025C137.768 203.29 140.421 200.971 143.684 200.78Z" fill="#404040"/>
<path d="M238.462 209.536C238.462 210.161 237.955 210.668 237.329 210.668C236.704 210.668 236.197 210.161 236.197 209.536C236.197 208.91 236.704 208.404 237.329 208.404C237.955 208.404 238.462 208.91 238.462 209.536Z" fill="#404040"/>
<path d="M238.462 209.536C238.462 210.161 237.955 210.668 237.329 210.668C236.704 210.668 236.197 210.161 236.197 209.536C236.197 208.91 236.704 208.404 237.329 208.404C237.955 208.404 238.462 208.91 238.462 209.536Z" fill="#404040"/>
<path d="M231.668 209.536C231.668 210.161 231.161 210.668 230.535 210.668C229.91 210.668 229.403 210.161 229.403 209.536C229.403 208.91 229.91 208.404 230.535 208.404C231.161 208.404 231.668 208.91 231.668 209.536Z" fill="#404040"/>
<path d="M231.668 209.536C231.668 210.161 231.161 210.668 230.535 210.668C229.91 210.668 229.403 210.161 229.403 209.536C229.403 208.91 229.91 208.404 230.535 208.404C231.161 208.404 231.668 208.91 231.668 209.536Z" fill="#404040"/>
<path d="M246.491 270.792C246.007 270.693 245.571 271.341 245.517 272.233C245.381 274.492 245.245 276.737 245.109 278.996C245.055 279.888 245.407 280.706 245.892 280.805C246.376 280.904 246.812 280.256 246.865 279.364C247.002 277.105 247.137 274.845 247.273 272.586C247.327 271.694 246.975 270.891 246.491 270.792Z" fill="#404040"/>
<path d="M257.689 292.194C257.575 292.185 257.457 292.205 257.341 292.243C256.878 292.395 256.627 292.887 256.779 293.35C256.944 293.848 257.105 294.37 257.127 294.899C257.136 295.123 257.122 295.373 256.986 295.562C256.839 295.765 256.597 295.888 256.374 295.986C256.154 296.083 255.919 296.156 255.69 296.228C255.395 296.32 255.1 296.4 254.803 296.482C254.273 296.629 253.747 296.784 253.213 296.91C250.721 297.496 248.164 297.577 245.616 297.508C244.287 297.472 242.942 297.459 241.62 297.311C241.418 297.288 241.177 297.257 240.976 297.222C240.062 297.063 238.46 296.627 238.512 295.421C238.518 295.294 238.545 295.171 238.583 295.051C238.642 294.861 238.733 294.68 238.845 294.517C238.986 294.311 239.159 294.14 239.342 293.972C239.702 293.643 239.73 293.082 239.4 292.723C239.07 292.364 238.509 292.345 238.15 292.674C236.945 293.784 236.252 295.457 237.169 296.985C237.324 297.244 237.513 297.48 237.735 297.685C238.248 298.163 238.896 298.475 239.559 298.687C241.174 299.202 242.939 299.177 244.615 299.241C247.801 299.361 251.003 299.311 254.108 298.504C254.499 298.403 254.887 298.294 255.277 298.186C256.784 297.769 258.56 297.306 258.855 295.522C258.913 295.171 258.903 294.813 258.86 294.461C258.793 293.893 258.636 293.338 258.457 292.797C258.343 292.45 258.032 292.222 257.689 292.194Z" fill="#404040"/>
<path d="M244.87 281.439C244.529 281.393 244.174 281.55 243.987 281.864C243.739 282.283 243.876 282.822 244.295 283.071C245.752 283.935 247.224 284.7 248.924 283.987C249.382 283.794 249.793 283.517 250.189 283.221C250.579 282.928 250.656 282.379 250.364 281.989C250.071 281.599 249.513 281.522 249.123 281.814C248.845 282.024 248.564 282.219 248.241 282.355C247.168 282.806 246.091 282.088 245.194 281.556C245.09 281.494 244.983 281.455 244.87 281.439Z" fill="#404040"/>
<path d="M218.063 293.92C217.842 293.965 217.64 294.091 217.506 294.295C216.517 295.792 215.854 298.077 216.973 299.68C217.159 299.946 217.385 300.171 217.639 300.371C217.842 300.531 218.073 300.654 218.313 300.746C218.895 300.969 219.527 301.017 220.145 300.996C221.431 300.952 222.65 300.562 223.915 300.388C224.847 300.26 225.791 300.22 226.729 300.155C228.707 300.017 230.714 299.876 232.647 299.414C233.924 299.109 235.422 298.633 236.202 297.491C236.618 296.882 236.613 296.211 236.718 295.51C236.789 295.028 236.451 294.582 235.969 294.511C235.487 294.44 235.041 294.77 234.97 295.252C234.931 295.515 234.906 295.779 234.878 296.043C234.866 296.164 234.857 296.308 234.795 296.417C234.588 296.783 234.181 297.004 233.813 297.175C233.057 297.525 232.23 297.714 231.415 297.866C229.736 298.178 228.023 298.298 226.321 298.415C225.378 298.48 224.426 298.516 223.491 298.665C222.426 298.835 221.383 299.148 220.303 299.223C219.827 299.255 219.275 299.269 218.838 299.048C218.338 298.794 218.156 298.225 218.155 297.699C218.153 296.838 218.509 295.977 218.979 295.269C219.248 294.862 219.136 294.314 218.729 294.045C218.526 293.911 218.285 293.875 218.063 293.92Z" fill="#404040"/>
<path d="M226.129 271.581C225.649 271.528 225.226 271.95 225.181 272.521C224.93 275.755 224.79 278.983 224.769 282.231C224.765 282.804 225.152 283.275 225.635 283.279C226.117 283.284 226.513 282.814 226.517 282.241C226.538 279.051 226.675 275.883 226.921 272.707C226.965 272.136 226.61 271.633 226.129 271.581Z" fill="#404040"/>
<path d="M222.967 284.23C222.744 284.195 222.515 284.246 222.318 284.389C221.689 284.845 221.112 285.353 220.636 285.97C220.001 286.795 219.583 287.749 219.196 288.709C218.648 290.069 218.041 291.454 217.856 292.921C217.746 293.791 217.793 294.696 218.189 295.493C218.33 295.778 218.516 296.04 218.738 296.267C218.926 296.46 219.142 296.626 219.371 296.767C221.132 297.848 223.188 297.072 225.073 296.941C225.81 296.891 226.557 296.918 227.295 296.883C227.851 296.857 228.407 296.823 228.96 296.758C231.217 296.496 234.12 295.801 235.145 293.512C235.272 293.229 235.362 292.935 235.42 292.63C235.502 292.194 235.512 291.747 235.47 291.306C235.411 290.69 235.258 290.11 234.962 289.566C234.476 288.675 233.757 287.94 233.072 287.202C232.704 286.806 232.36 286.383 231.974 286.004C231.489 285.529 230.959 285.113 230.384 284.755C229.97 284.498 229.425 284.632 229.168 285.046C228.911 285.46 229.037 286.005 229.451 286.262C229.918 286.55 230.341 286.885 230.733 287.269C231.1 287.628 231.425 288.025 231.774 288.401C232.293 288.961 232.847 289.505 233.264 290.149C233.809 290.993 233.948 292.199 233.38 293.071C233.074 293.541 232.601 293.879 232.107 294.128C231.463 294.453 230.755 294.651 230.051 294.794C228.955 295.016 227.837 295.109 226.721 295.143C226.132 295.162 225.545 295.136 224.956 295.177C224.645 295.199 224.325 295.24 224.016 295.285C223.707 295.33 223.392 295.389 223.083 295.435C222.116 295.578 220.587 295.83 219.895 294.91C219.471 294.346 219.532 293.533 219.645 292.879C219.857 291.661 220.368 290.507 220.828 289.367C221.178 288.496 221.553 287.621 222.159 286.894C222.506 286.479 222.914 286.129 223.35 285.812C223.744 285.526 223.836 284.975 223.55 284.58C223.406 284.383 223.19 284.266 222.967 284.23Z" fill="#404040"/>
<path d="M223.483 284.006C223.147 284.079 222.867 284.346 222.8 284.705C222.71 285.184 223.028 285.647 223.507 285.737C224.383 285.901 225.261 286.056 226.155 286.062C226.828 286.066 227.491 285.982 228.152 285.862C228.632 285.775 228.947 285.309 228.86 284.83C228.773 284.35 228.316 284.035 227.836 284.122C227.283 284.223 226.735 284.301 226.171 284.297C225.383 284.291 224.604 284.15 223.832 284.006C223.712 283.983 223.594 283.981 223.483 284.006Z" fill="#404040"/>
<path d="M251.273 284.377C250.933 284.326 250.579 284.471 250.387 284.783C250.133 285.198 250.269 285.745 250.685 286C251.05 286.225 251.442 286.425 251.788 286.679C252.019 286.849 252.209 287.086 252.405 287.292C252.687 287.591 252.97 287.888 253.243 288.196C253.837 288.865 254.437 289.59 254.769 290.431C254.93 290.839 255.012 291.284 254.9 291.715C254.811 292.061 254.455 292.313 254.171 292.488C253.581 292.851 252.896 293.081 252.229 293.256C250.906 293.604 249.549 293.78 248.185 293.874C246.785 293.971 245.402 293.967 244.014 293.76C243.072 293.62 242.089 293.468 241.224 293.047C240.889 292.884 240.477 292.637 240.349 292.257C240.294 292.094 240.353 291.925 240.415 291.77C240.543 291.448 240.705 291.148 240.875 290.846C241.18 290.302 241.534 289.788 241.821 289.233C241.995 288.898 242.125 288.543 242.284 288.2C242.512 287.708 242.771 287.23 243.094 286.792C243.442 286.319 243.864 285.907 244.3 285.515C244.663 285.19 244.691 284.63 244.366 284.267C244.04 283.904 243.48 283.876 243.117 284.201C242.592 284.673 242.096 285.177 241.675 285.747C241.198 286.395 240.833 287.105 240.513 287.84C240.43 288.031 240.352 288.231 240.255 288.417C239.843 289.207 239.309 289.931 238.935 290.745C238.66 291.345 238.463 291.987 238.629 292.647C239.071 294.406 241.179 295.037 242.736 295.339C242.995 295.389 243.257 295.427 243.518 295.467C243.974 295.538 244.436 295.616 244.896 295.655C246.338 295.774 247.802 295.704 249.239 295.56C250.789 295.405 252.363 295.147 253.827 294.595C254.977 294.162 256.257 293.443 256.604 292.169C256.686 291.865 256.728 291.551 256.722 291.236C256.716 290.933 256.668 290.637 256.593 290.345C256.471 289.873 256.271 289.424 256.032 289.001C255.628 288.284 255.109 287.636 254.564 287.022C254.28 286.701 253.983 286.394 253.688 286.082C253.442 285.822 253.198 285.552 252.918 285.328C252.516 285.006 252.042 284.763 251.604 284.494C251.5 284.43 251.386 284.395 251.273 284.377Z" fill="#404040"/>
<path d="M229.018 226.144C228.795 226.179 228.588 226.297 228.444 226.494C224.242 232.237 223.075 239.462 221.335 246.197C220.959 247.653 220.554 249.096 220.061 250.518C219.214 252.965 218.191 255.354 217.464 257.843C217.28 258.473 217.108 259.098 216.94 259.732C216.173 262.622 215.389 266.233 217.548 268.731C217.825 269.052 218.134 269.343 218.48 269.588C220.885 271.295 223.982 270.56 226.712 270.529C228.842 270.505 230.92 271.128 233.055 270.978C234.133 270.903 235.182 270.637 236.219 270.346C237.38 270.019 238.546 269.643 239.756 269.555C240.417 269.507 241.088 269.554 241.746 269.622C243.287 269.779 244.799 270.142 246.332 270.354C246.869 270.428 247.423 270.506 247.964 270.537C248.604 270.574 249.254 270.539 249.895 270.537C250.34 270.536 250.782 270.589 251.227 270.587C252.059 270.584 252.808 270.395 253.433 269.83C253.659 269.625 253.866 269.396 254.041 269.147C254.214 268.901 254.359 268.631 254.482 268.356C255.04 267.111 255.119 265.689 255.048 264.344C254.925 262.031 254.342 259.751 253.616 257.56C252.997 255.691 252.158 253.916 251.186 252.207C249.638 249.487 247.82 246.921 246.407 244.125C244.832 241.004 243.741 237.681 242.42 234.452C242.062 233.576 241.696 232.687 241.296 231.83C240.897 230.975 240.441 230.141 240.014 229.299C239.794 228.865 239.267 228.696 238.832 228.916C238.398 229.137 238.221 229.664 238.441 230.098C238.859 230.923 239.307 231.741 239.698 232.579C240.086 233.41 240.433 234.269 240.78 235.118C242.119 238.391 243.237 241.752 244.834 244.915C246.983 249.172 250.077 252.934 251.71 257.452C252.516 259.683 253.157 262.057 253.283 264.436C253.339 265.495 253.308 266.647 252.867 267.632C252.766 267.858 252.641 268.081 252.484 268.273C252.358 268.428 252.213 268.585 252.034 268.681C251.724 268.847 251.325 268.834 250.986 268.822C250.62 268.81 250.261 268.772 249.895 268.772C249.288 268.773 248.67 268.807 248.064 268.772C247.818 268.759 247.576 268.716 247.331 268.689C246.446 268.592 245.569 268.447 244.693 268.29C242.84 267.957 240.925 267.605 239.041 267.857C237.051 268.123 235.189 269 233.189 269.197C231.011 269.411 228.865 268.739 226.687 268.764C226.121 268.771 225.554 268.818 224.989 268.856C222.981 268.988 220.358 269.296 218.879 267.582C217.934 266.486 217.822 264.979 217.955 263.595C218.079 262.317 218.406 261.069 218.738 259.832C219.017 258.79 219.32 257.757 219.67 256.736C220.32 254.843 221.08 252.991 221.734 251.1C222.35 249.324 222.834 247.504 223.291 245.681C224.062 242.608 224.742 239.514 225.672 236.483C226.644 233.314 227.898 230.224 229.867 227.535C230.155 227.141 230.069 226.59 229.676 226.303C229.479 226.158 229.241 226.11 229.018 226.144Z" fill="#404040"/>
<path d="M231.898 199.016C227.715 199.261 224.421 202.282 222.609 205.883C220.092 210.883 220.101 217.488 224.065 221.757C224.797 222.546 225.639 223.233 226.554 223.797C227.553 224.411 228.637 224.883 229.743 225.27C232.693 226.303 235.982 226.644 239.007 225.72C245.925 223.607 250.41 215.028 248.022 208.164C247.54 206.776 246.776 205.5 245.792 204.41C245.072 203.613 244.246 202.935 243.244 202.529C242.305 202.147 243.241 202.529 238.874 201.105C238.858 201.095 238.84 201.097 238.824 201.089C234.53 199.24 236.032 199.532 234.446 199.207C233.61 199.036 232.75 198.966 231.898 199.016ZM232.007 200.78C232.705 200.74 232.002 200.785 237.934 202.603C237.935 202.605 237.94 202.602 237.942 202.603C237.955 202.611 237.97 202.613 237.983 202.62C240.344 203.597 239.531 203.417 240.406 203.619C241.131 203.786 241.885 203.886 242.578 204.168C243.408 204.506 244.065 205.102 244.643 205.775C245.394 206.649 245.979 207.658 246.358 208.747C247.008 210.618 247.044 212.655 246.632 214.582C245.739 218.767 242.677 222.761 238.491 224.038C235.673 224.898 232.605 224.478 229.892 223.447C229.06 223.131 228.238 222.757 227.478 222.29C226.698 221.81 225.988 221.23 225.364 220.559C221.735 216.651 222.016 210.435 224.532 206.025C226.091 203.29 228.744 200.971 232.007 200.78Z" fill="#404040"/>
</svg>
