<svg width="387" height="300" viewBox="0 0 387 300" fill="none" xmlns="http://www.w3.org/2000/svg">
<circle cx="295.358" cy="85.9953" r="19.2028" fill="#D9D9D9"/>
<circle cx="243.594" cy="139.429" r="19.2028" fill="#D9D9D9"/>
<circle cx="19.8395" cy="157.797" r="19.2028" fill="#D9D9D9"/>
<circle cx="17.3348" cy="41.7452" r="16.6981" fill="#D9D9D9"/>
<circle cx="138.396" cy="12.5236" r="12.5236" fill="#D9D9D9"/>
<line x1="147.415" y1="87.302" x2="18.8392" y2="42.2171" stroke="#D9D9D9"/>
<line x1="147.084" y1="86.8963" x2="137.066" y2="11.7548" stroke="#D9D9D9"/>
<line x1="152.572" y1="89.6701" x2="294.506" y2="84.6607" stroke="#D9D9D9"/>
<line x1="152.826" y1="89.7293" x2="242.996" y2="138.154" stroke="#D9D9D9"/>
<line x1="369.961" y1="30.4598" x2="294.819" y2="85.5636" stroke="#D9D9D9"/>
<line x1="152.818" y1="90.6148" x2="19.2327" y2="159.077" stroke="#D9D9D9"/>
<circle cx="152.59" cy="90.1698" r="23.3774" fill="#D9D9D9"/>
<circle cx="369.665" cy="30.0566" r="16.6981" fill="#E3B15B"/>
<path d="M195.433 208.536C195.433 209.161 194.926 209.668 194.301 209.668C193.675 209.668 193.168 209.161 193.168 208.536C193.168 207.911 193.675 207.404 194.301 207.404C194.926 207.404 195.433 207.911 195.433 208.536Z" fill="#404040"/>
<path d="M195.433 208.536C195.433 209.161 194.926 209.668 194.301 209.668C193.675 209.668 193.168 209.161 193.168 208.536C193.168 207.911 193.675 207.404 194.301 207.404C194.926 207.404 195.433 207.911 195.433 208.536Z" fill="#404040"/>
<path d="M188.639 208.536C188.639 209.161 188.132 209.668 187.506 209.668C186.881 209.668 186.374 209.161 186.374 208.536C186.374 207.911 186.881 207.404 187.506 207.404C188.132 207.404 188.639 207.911 188.639 208.536Z" fill="#404040"/>
<path d="M188.639 208.536C188.639 209.161 188.132 209.668 187.506 209.668C186.881 209.668 186.374 209.161 186.374 208.536C186.374 207.911 186.881 207.404 187.506 207.404C188.132 207.404 188.639 207.911 188.639 208.536Z" fill="#404040"/>
<path d="M203.462 269.792C202.977 269.693 202.542 270.341 202.488 271.233C202.351 273.492 202.216 275.737 202.08 277.996C202.026 278.888 202.378 279.706 202.862 279.805C203.347 279.904 203.782 279.256 203.836 278.364C203.972 276.105 204.108 273.845 204.244 271.586C204.298 270.694 203.946 269.891 203.462 269.792Z" fill="#404040"/>
<path d="M214.66 291.194C214.546 291.185 214.428 291.205 214.312 291.243C213.849 291.395 213.597 291.887 213.75 292.35C213.915 292.848 214.076 293.37 214.098 293.899C214.107 294.123 214.092 294.373 213.956 294.562C213.81 294.765 213.568 294.888 213.345 294.986C213.125 295.083 212.89 295.156 212.66 295.228C212.366 295.32 212.071 295.4 211.773 295.482C211.244 295.629 210.718 295.784 210.183 295.91C207.691 296.496 205.135 296.577 202.586 296.508C201.258 296.472 199.913 296.459 198.591 296.311C198.389 296.288 198.148 296.257 197.947 296.222C197.032 296.063 195.431 295.627 195.483 294.421C195.488 294.294 195.516 294.171 195.553 294.051C195.612 293.861 195.703 293.68 195.816 293.517C195.957 293.311 196.129 293.14 196.313 292.972C196.672 292.643 196.7 292.082 196.371 291.723C196.041 291.364 195.48 291.345 195.121 291.674C193.916 292.784 193.223 294.457 194.139 295.985C194.295 296.244 194.484 296.48 194.705 296.685C195.219 297.163 195.866 297.475 196.53 297.687C198.144 298.202 199.91 298.177 201.586 298.241C204.772 298.361 207.974 298.311 211.078 297.504C211.47 297.403 211.858 297.294 212.248 297.186C213.755 296.769 215.531 296.306 215.826 294.522C215.884 294.171 215.873 293.813 215.831 293.461C215.763 292.893 215.606 292.338 215.428 291.797C215.313 291.45 215.003 291.222 214.66 291.194Z" fill="#404040"/>
<path d="M201.841 280.44C201.5 280.393 201.145 280.55 200.958 280.864C200.71 281.283 200.847 281.823 201.266 282.071C202.723 282.935 204.195 283.7 205.895 282.987C206.353 282.795 206.764 282.518 207.16 282.221C207.549 281.928 207.627 281.379 207.335 280.989C207.042 280.599 206.484 280.522 206.094 280.814C205.816 281.024 205.535 281.219 205.212 281.355C204.139 281.806 203.062 281.088 202.165 280.556C202.061 280.494 201.954 280.455 201.841 280.44Z" fill="#404040"/>
<path d="M175.035 292.92C174.813 292.965 174.611 293.092 174.477 293.295C173.489 294.792 172.825 297.077 173.944 298.68C174.13 298.946 174.356 299.171 174.61 299.371C174.813 299.531 175.044 299.654 175.284 299.746C175.866 299.969 176.498 300.017 177.116 299.996C178.402 299.952 179.621 299.562 180.887 299.388C181.818 299.26 182.763 299.22 183.7 299.155C185.678 299.017 187.685 298.876 189.619 298.414C190.895 298.109 192.394 297.633 193.173 296.491C193.589 295.882 193.585 295.211 193.689 294.51C193.76 294.028 193.422 293.582 192.94 293.511C192.458 293.44 192.012 293.77 191.941 294.252C191.902 294.515 191.877 294.779 191.849 295.043C191.837 295.164 191.828 295.308 191.766 295.417C191.559 295.783 191.152 296.004 190.784 296.175C190.028 296.525 189.201 296.714 188.387 296.866C186.707 297.178 184.994 297.298 183.292 297.415C182.349 297.48 181.397 297.516 180.462 297.665C179.397 297.835 178.354 298.148 177.274 298.223C176.799 298.255 176.247 298.27 175.809 298.048C175.309 297.794 175.128 297.225 175.126 296.699C175.124 295.838 175.481 294.977 175.95 294.269C176.219 293.862 176.107 293.314 175.701 293.045C175.497 292.911 175.256 292.875 175.035 292.92Z" fill="#404040"/>
<path d="M183.101 270.581C182.62 270.528 182.197 270.95 182.152 271.521C181.901 274.755 181.761 277.983 181.74 281.231C181.736 281.804 182.123 282.275 182.606 282.279C183.089 282.284 183.484 281.814 183.488 281.241C183.509 278.051 183.646 274.883 183.892 271.707C183.936 271.136 183.581 270.633 183.101 270.581Z" fill="#404040"/>
<path d="M179.938 283.23C179.715 283.195 179.486 283.246 179.289 283.389C178.66 283.845 178.082 284.353 177.607 284.97C176.972 285.795 176.553 286.749 176.167 287.709C175.619 289.069 175.012 290.454 174.827 291.921C174.717 292.791 174.764 293.696 175.16 294.493C175.301 294.778 175.487 295.04 175.709 295.267C175.897 295.46 176.113 295.626 176.342 295.767C178.102 296.848 180.159 296.072 182.044 295.941C182.781 295.891 183.528 295.918 184.266 295.883C184.822 295.857 185.378 295.823 185.931 295.758C188.188 295.496 191.091 294.801 192.116 292.512C192.243 292.229 192.333 291.935 192.391 291.63C192.473 291.194 192.483 290.747 192.441 290.306C192.382 289.69 192.229 289.11 191.933 288.566C191.447 287.675 190.728 286.94 190.043 286.202C189.675 285.806 189.331 285.383 188.945 285.004C188.46 284.529 187.93 284.113 187.355 283.755C186.941 283.498 186.396 283.632 186.139 284.046C185.882 284.46 186.008 285.005 186.422 285.262C186.889 285.55 187.312 285.885 187.704 286.269C188.071 286.628 188.396 287.025 188.745 287.401C189.264 287.961 189.818 288.505 190.235 289.149C190.78 289.993 190.919 291.199 190.351 292.071C190.045 292.541 189.572 292.879 189.078 293.128C188.434 293.453 187.726 293.651 187.022 293.794C185.926 294.016 184.808 294.109 183.692 294.143C183.103 294.162 182.515 294.136 181.927 294.177C181.616 294.199 181.296 294.24 180.987 294.285C180.678 294.33 180.363 294.389 180.054 294.435C179.087 294.578 177.558 294.83 176.866 293.91C176.442 293.346 176.503 292.533 176.616 291.879C176.828 290.661 177.339 289.507 177.799 288.367C178.149 287.496 178.524 286.621 179.13 285.894C179.477 285.479 179.884 285.129 180.321 284.812C180.715 284.526 180.807 283.975 180.521 283.58C180.377 283.383 180.161 283.266 179.938 283.23Z" fill="#404040"/>
<path d="M180.454 283.006C180.118 283.079 179.838 283.345 179.771 283.705C179.681 284.184 180 284.647 180.479 284.737C181.354 284.901 182.232 285.056 183.126 285.062C183.799 285.066 184.462 284.982 185.124 284.862C185.603 284.775 185.918 284.309 185.831 283.83C185.744 283.35 185.287 283.035 184.807 283.122C184.254 283.223 183.706 283.301 183.142 283.297C182.355 283.291 181.575 283.15 180.803 283.006C180.684 282.983 180.566 282.981 180.454 283.006Z" fill="#404040"/>
<path d="M208.244 283.378C207.904 283.326 207.55 283.471 207.359 283.783C207.104 284.198 207.24 284.745 207.656 285C208.022 285.225 208.413 285.425 208.759 285.679C208.991 285.849 209.18 286.086 209.376 286.292C209.658 286.591 209.942 286.888 210.214 287.196C210.808 287.865 211.408 288.59 211.74 289.431C211.901 289.839 211.983 290.284 211.871 290.715C211.782 291.061 211.426 291.313 211.142 291.488C210.552 291.851 209.867 292.081 209.2 292.256C207.877 292.604 206.52 292.78 205.157 292.874C203.756 292.971 202.374 292.967 200.985 292.76C200.043 292.62 199.06 292.468 198.196 292.047C197.86 291.884 197.449 291.637 197.32 291.257C197.265 291.094 197.324 290.925 197.386 290.77C197.514 290.448 197.676 290.148 197.846 289.846C198.151 289.302 198.505 288.788 198.793 288.234C198.967 287.898 199.096 287.543 199.255 287.201C199.484 286.708 199.742 286.23 200.065 285.792C200.414 285.319 200.835 284.907 201.271 284.515C201.634 284.19 201.662 283.63 201.337 283.267C201.011 282.904 200.451 282.876 200.089 283.201C199.563 283.673 199.067 284.177 198.646 284.747C198.169 285.395 197.805 286.105 197.484 286.84C197.401 287.031 197.323 287.231 197.226 287.417C196.814 288.208 196.281 288.931 195.907 289.745C195.631 290.345 195.434 290.987 195.6 291.647C196.043 293.406 198.15 294.037 199.707 294.339C199.966 294.389 200.229 294.427 200.489 294.467C200.946 294.538 201.407 294.616 201.867 294.655C203.31 294.774 204.773 294.704 206.21 294.56C207.761 294.405 209.335 294.147 210.798 293.595C211.948 293.162 213.228 292.443 213.575 291.17C213.658 290.865 213.699 290.551 213.693 290.236C213.687 289.933 213.64 289.638 213.564 289.345C213.442 288.873 213.242 288.424 213.003 288.001C212.599 287.284 212.081 286.636 211.536 286.022C211.251 285.702 210.954 285.394 210.659 285.082C210.413 284.822 210.169 284.552 209.889 284.328C209.487 284.006 209.013 283.763 208.575 283.494C208.471 283.43 208.357 283.395 208.244 283.378Z" fill="#404040"/>
<path d="M185.989 225.144C185.766 225.179 185.559 225.297 185.415 225.494C181.213 231.237 180.046 238.462 178.306 245.197C177.93 246.653 177.525 248.096 177.033 249.518C176.185 251.965 175.162 254.354 174.435 256.843C174.251 257.473 174.08 258.098 173.911 258.732C173.144 261.622 172.36 265.233 174.519 267.731C174.796 268.052 175.105 268.343 175.451 268.588C177.856 270.295 180.954 269.56 183.684 269.529C185.814 269.505 187.891 270.128 190.027 269.978C191.105 269.903 192.153 269.637 193.19 269.346C194.351 269.019 195.517 268.643 196.727 268.555C197.388 268.507 198.059 268.554 198.717 268.622C200.258 268.779 201.771 269.142 203.304 269.354C203.84 269.428 204.394 269.506 204.935 269.537C205.576 269.574 206.225 269.539 206.866 269.537C207.312 269.536 207.753 269.589 208.198 269.587C209.03 269.584 209.779 269.395 210.404 268.83C210.63 268.625 210.837 268.396 211.012 268.147C211.185 267.901 211.33 267.631 211.453 267.356C212.011 266.111 212.09 264.689 212.019 263.344C211.897 261.031 211.313 258.751 210.587 256.56C209.968 254.691 209.129 252.916 208.157 251.207C206.61 248.487 204.791 245.921 203.379 243.125C201.803 240.004 200.712 236.681 199.391 233.452C199.033 232.576 198.667 231.687 198.268 230.83C197.869 229.975 197.412 229.141 196.986 228.299C196.765 227.865 196.238 227.696 195.804 227.916C195.369 228.137 195.192 228.664 195.412 229.098C195.83 229.923 196.278 230.741 196.669 231.579C197.057 232.41 197.404 233.269 197.751 234.118C199.09 237.391 200.208 240.752 201.805 243.915C203.955 248.172 207.048 251.934 208.681 256.452C209.488 258.683 210.128 261.057 210.254 263.436C210.311 264.495 210.279 265.647 209.838 266.632C209.737 266.858 209.612 267.081 209.455 267.273C209.329 267.428 209.184 267.585 209.006 267.681C208.695 267.847 208.296 267.834 207.957 267.822C207.591 267.81 207.232 267.772 206.866 267.772C206.259 267.773 205.641 267.807 205.035 267.772C204.789 267.759 204.548 267.716 204.303 267.689C203.417 267.592 202.541 267.447 201.664 267.29C199.812 266.957 197.896 266.605 196.012 266.857C194.022 267.123 192.16 268 190.16 268.197C187.983 268.411 185.836 267.739 183.659 267.764C183.092 267.771 182.525 267.818 181.96 267.856C179.952 267.988 177.329 268.296 175.851 266.582C174.905 265.486 174.793 263.979 174.927 262.595C175.05 261.317 175.377 260.069 175.709 258.832C175.989 257.79 176.291 256.757 176.641 255.736C177.291 253.843 178.051 251.991 178.706 250.1C179.321 248.324 179.806 246.504 180.262 244.681C181.033 241.608 181.714 238.514 182.643 235.483C183.615 232.314 184.87 229.224 186.839 226.535C187.126 226.141 187.04 225.59 186.647 225.303C186.45 225.158 186.213 225.11 185.989 225.144Z" fill="#404040"/>
<path d="M188.869 198.016C184.686 198.261 181.392 201.282 179.579 204.883C177.063 209.883 177.071 216.488 181.036 220.757C181.768 221.546 182.609 222.233 183.525 222.797C184.524 223.411 185.608 223.883 186.713 224.27C189.663 225.303 192.953 225.644 195.978 224.72C202.895 222.607 207.381 214.028 204.993 207.164C204.51 205.776 203.747 204.5 202.762 203.41C202.043 202.613 201.216 201.935 200.215 201.529C199.275 201.147 200.211 201.529 195.845 200.105C195.829 200.095 195.811 200.097 195.795 200.089C191.501 198.24 193.003 198.532 191.416 198.207C190.581 198.036 189.721 197.966 188.869 198.016ZM188.977 199.78C189.676 199.74 188.972 199.785 194.904 201.603C194.906 201.605 194.91 201.602 194.912 201.603C194.925 201.611 194.941 201.613 194.954 201.62C197.314 202.597 196.501 202.417 197.376 202.619C198.101 202.786 198.855 202.886 199.549 203.168C200.378 203.506 201.036 204.102 201.613 204.775C202.364 205.649 202.949 206.658 203.328 207.747C203.979 209.618 204.014 211.655 203.603 213.582C202.709 217.767 199.648 221.761 195.462 223.038C192.644 223.898 189.576 223.478 186.863 222.447C186.031 222.131 185.208 221.757 184.449 221.29C183.669 220.81 182.958 220.23 182.334 219.559C178.705 215.651 178.986 209.435 181.502 205.025C183.062 202.29 185.715 199.971 188.977 199.78Z" fill="#404040"/>
<path d="M150.139 208.536C150.139 209.161 149.632 209.668 149.007 209.668C148.381 209.668 147.874 209.161 147.874 208.536C147.874 207.911 148.381 207.404 149.007 207.404C149.632 207.404 150.139 207.911 150.139 208.536Z" fill="#404040"/>
<path d="M150.139 208.536C150.139 209.161 149.632 209.668 149.007 209.668C148.381 209.668 147.874 209.161 147.874 208.536C147.874 207.911 148.381 207.404 149.007 207.404C149.632 207.404 150.139 207.911 150.139 208.536Z" fill="#404040"/>
<path d="M143.345 208.536C143.345 209.161 142.838 209.668 142.212 209.668C141.587 209.668 141.08 209.161 141.08 208.536C141.08 207.911 141.587 207.404 142.212 207.404C142.838 207.404 143.345 207.911 143.345 208.536Z" fill="#404040"/>
<path d="M143.345 208.536C143.345 209.161 142.838 209.668 142.212 209.668C141.587 209.668 141.08 209.161 141.08 208.536C141.08 207.911 141.587 207.404 142.212 207.404C142.838 207.404 143.345 207.911 143.345 208.536Z" fill="#404040"/>
<path d="M158.168 269.792C157.684 269.693 157.248 270.341 157.194 271.233C157.058 273.493 156.923 275.737 156.786 277.996C156.732 278.888 157.085 279.706 157.569 279.806C158.053 279.905 158.489 279.256 158.543 278.364C158.679 276.105 158.814 273.845 158.95 271.586C159.004 270.694 158.652 269.891 158.168 269.792Z" fill="#404040"/>
<path d="M169.366 291.194C169.252 291.185 169.134 291.205 169.018 291.243C168.555 291.395 168.303 291.887 168.456 292.35C168.621 292.848 168.782 293.37 168.804 293.899C168.813 294.123 168.798 294.373 168.662 294.562C168.516 294.765 168.274 294.888 168.051 294.986C167.831 295.083 167.596 295.156 167.367 295.228C167.072 295.32 166.777 295.4 166.479 295.482C165.95 295.629 165.424 295.784 164.889 295.91C162.397 296.496 159.841 296.577 157.292 296.508C155.964 296.472 154.619 296.459 153.297 296.311C153.095 296.288 152.854 296.257 152.653 296.222C151.739 296.063 150.137 295.627 150.189 294.421C150.194 294.294 150.222 294.171 150.259 294.051C150.318 293.861 150.409 293.68 150.522 293.517C150.663 293.311 150.835 293.14 151.019 292.972C151.378 292.643 151.406 292.082 151.077 291.723C150.747 291.364 150.186 291.345 149.827 291.674C148.622 292.784 147.929 294.457 148.845 295.985C149.001 296.244 149.19 296.48 149.411 296.685C149.925 297.163 150.572 297.475 151.236 297.687C152.85 298.202 154.616 298.177 156.292 298.241C159.478 298.361 162.68 298.311 165.785 297.504C166.176 297.403 166.564 297.294 166.954 297.186C168.461 296.769 170.237 296.306 170.532 294.522C170.59 294.171 170.579 293.813 170.537 293.461C170.469 292.893 170.312 292.338 170.134 291.797C170.019 291.45 169.709 291.222 169.366 291.194Z" fill="#404040"/>
<path d="M156.547 280.44C156.206 280.393 155.851 280.55 155.664 280.864C155.416 281.283 155.553 281.823 155.972 282.071C157.429 282.935 158.901 283.7 160.601 282.987C161.059 282.795 161.47 282.518 161.866 282.221C162.256 281.928 162.333 281.379 162.041 280.989C161.748 280.599 161.19 280.522 160.8 280.814C160.522 281.024 160.241 281.219 159.918 281.355C158.845 281.806 157.768 281.088 156.871 280.556C156.767 280.494 156.66 280.455 156.547 280.44Z" fill="#404040"/>
<path d="M129.741 292.92C129.519 292.965 129.317 293.092 129.183 293.295C128.195 294.792 127.531 297.077 128.65 298.68C128.836 298.946 129.062 299.171 129.316 299.371C129.519 299.531 129.75 299.654 129.99 299.746C130.572 299.969 131.204 300.017 131.822 299.996C133.108 299.952 134.327 299.562 135.593 299.388C136.524 299.26 137.469 299.22 138.406 299.155C140.384 299.017 142.391 298.876 144.325 298.414C145.601 298.109 147.1 297.633 147.879 296.491C148.295 295.882 148.291 295.211 148.395 294.51C148.466 294.028 148.128 293.582 147.646 293.511C147.164 293.44 146.718 293.77 146.647 294.252C146.609 294.515 146.583 294.779 146.556 295.043C146.543 295.164 146.534 295.308 146.472 295.417C146.265 295.783 145.858 296.004 145.49 296.175C144.734 296.525 143.907 296.714 143.093 296.866C141.413 297.178 139.7 297.298 137.998 297.415C137.055 297.48 136.103 297.516 135.168 297.665C134.103 297.835 133.06 298.148 131.98 298.223C131.505 298.255 130.953 298.27 130.515 298.048C130.015 297.794 129.834 297.225 129.832 296.699C129.83 295.838 130.187 294.977 130.656 294.269C130.925 293.862 130.813 293.314 130.407 293.045C130.203 292.911 129.962 292.875 129.741 292.92Z" fill="#404040"/>
<path d="M137.807 270.581C137.326 270.528 136.903 270.95 136.858 271.521C136.608 274.755 136.467 277.983 136.446 281.231C136.442 281.804 136.829 282.275 137.312 282.279C137.795 282.284 138.19 281.814 138.194 281.241C138.215 278.051 138.352 274.883 138.598 271.707C138.642 271.136 138.287 270.633 137.807 270.581Z" fill="#404040"/>
<path d="M134.644 283.23C134.421 283.195 134.192 283.246 133.995 283.389C133.366 283.845 132.789 284.353 132.313 284.97C131.678 285.795 131.26 286.749 130.873 287.709C130.325 289.069 129.718 290.454 129.533 291.921C129.423 292.791 129.47 293.696 129.866 294.493C130.007 294.778 130.193 295.04 130.415 295.267C130.603 295.46 130.819 295.626 131.048 295.767C132.809 296.848 134.865 296.072 136.75 295.941C137.487 295.891 138.234 295.918 138.972 295.883C139.528 295.857 140.085 295.823 140.637 295.758C142.894 295.496 145.797 294.801 146.822 292.512C146.949 292.229 147.039 291.935 147.097 291.63C147.179 291.194 147.189 290.747 147.147 290.306C147.088 289.69 146.935 289.11 146.639 288.566C146.153 287.675 145.434 286.94 144.749 286.202C144.381 285.806 144.037 285.383 143.651 285.004C143.166 284.529 142.636 284.113 142.061 283.755C141.647 283.498 141.102 283.632 140.845 284.046C140.588 284.46 140.714 285.005 141.128 285.262C141.595 285.55 142.018 285.885 142.41 286.269C142.777 286.628 143.102 287.025 143.451 287.401C143.97 287.961 144.524 288.505 144.941 289.149C145.486 289.993 145.625 291.199 145.057 292.071C144.751 292.541 144.278 292.879 143.784 293.128C143.14 293.453 142.432 293.651 141.728 293.794C140.632 294.016 139.514 294.109 138.398 294.143C137.809 294.162 137.222 294.136 136.633 294.177C136.322 294.199 136.002 294.24 135.693 294.285C135.384 294.33 135.069 294.389 134.76 294.435C133.793 294.578 132.264 294.83 131.572 293.91C131.148 293.346 131.209 292.533 131.322 291.879C131.534 290.661 132.045 289.507 132.505 288.367C132.855 287.496 133.23 286.621 133.836 285.894C134.183 285.479 134.591 285.129 135.027 284.812C135.421 284.526 135.513 283.975 135.227 283.58C135.083 283.383 134.867 283.266 134.644 283.23Z" fill="#404040"/>
<path d="M135.16 283.006C134.824 283.079 134.544 283.345 134.477 283.705C134.387 284.184 134.706 284.647 135.185 284.737C136.06 284.901 136.938 285.056 137.832 285.062C138.505 285.066 139.168 284.982 139.83 284.862C140.309 284.775 140.624 284.309 140.537 283.83C140.45 283.35 139.993 283.035 139.513 283.122C138.96 283.223 138.412 283.301 137.848 283.297C137.061 283.291 136.281 283.15 135.509 283.006C135.39 282.983 135.272 282.981 135.16 283.006Z" fill="#404040"/>
<path d="M162.95 283.378C162.61 283.326 162.256 283.471 162.065 283.783C161.81 284.198 161.946 284.745 162.362 285C162.728 285.225 163.119 285.425 163.465 285.679C163.697 285.849 163.886 286.086 164.082 286.292C164.364 286.591 164.648 286.888 164.92 287.196C165.514 287.865 166.114 288.59 166.446 289.431C166.607 289.839 166.689 290.284 166.578 290.715C166.488 291.061 166.132 291.313 165.848 291.488C165.258 291.851 164.573 292.081 163.906 292.256C162.583 292.604 161.226 292.78 159.863 292.874C158.462 292.971 157.08 292.967 155.691 292.76C154.749 292.62 153.766 292.468 152.902 292.047C152.566 291.884 152.155 291.637 152.026 291.257C151.972 291.094 152.03 290.925 152.092 290.77C152.22 290.448 152.382 290.148 152.552 289.846C152.857 289.302 153.211 288.788 153.499 288.234C153.673 287.898 153.803 287.543 153.961 287.201C154.19 286.708 154.448 286.23 154.771 285.792C155.12 285.319 155.541 284.907 155.977 284.515C156.34 284.19 156.368 283.63 156.043 283.267C155.717 282.904 155.157 282.876 154.795 283.201C154.269 283.673 153.773 284.177 153.353 284.747C152.875 285.395 152.511 286.105 152.19 286.84C152.107 287.031 152.029 287.231 151.932 287.417C151.52 288.208 150.987 288.931 150.613 289.745C150.337 290.345 150.14 290.987 150.306 291.647C150.749 293.406 152.856 294.037 154.413 294.339C154.672 294.389 154.935 294.427 155.195 294.467C155.652 294.538 156.113 294.616 156.573 294.655C158.016 294.774 159.479 294.704 160.916 294.56C162.467 294.405 164.041 294.147 165.505 293.595C166.654 293.162 167.934 292.443 168.281 291.17C168.364 290.865 168.405 290.551 168.399 290.236C168.393 289.933 168.346 289.638 168.27 289.345C168.148 288.873 167.948 288.424 167.71 288.001C167.305 287.284 166.787 286.636 166.242 286.022C165.957 285.702 165.66 285.394 165.365 285.082C165.119 284.822 164.875 284.552 164.595 284.328C164.193 284.006 163.719 283.763 163.281 283.494C163.178 283.43 163.063 283.395 162.95 283.378Z" fill="#404040"/>
<path d="M140.695 225.145C140.472 225.179 140.265 225.297 140.121 225.494C135.919 231.237 134.752 238.463 133.012 245.197C132.636 246.653 132.231 248.097 131.739 249.518C130.891 251.965 129.868 254.354 129.141 256.843C128.957 257.474 128.786 258.098 128.617 258.733C127.85 261.622 127.066 265.234 129.225 267.731C129.502 268.052 129.811 268.343 130.157 268.589C132.562 270.295 135.66 269.56 138.39 269.529C140.52 269.505 142.597 270.129 144.733 269.978C145.811 269.903 146.859 269.637 147.896 269.346C149.057 269.02 150.223 268.643 151.433 268.555C152.094 268.507 152.765 268.554 153.423 268.622C154.965 268.779 156.477 269.142 158.01 269.354C158.546 269.429 159.1 269.506 159.641 269.537C160.282 269.574 160.931 269.539 161.572 269.537C162.018 269.536 162.459 269.589 162.904 269.587C163.736 269.584 164.485 269.395 165.11 268.83C165.336 268.626 165.543 268.396 165.718 268.147C165.891 267.901 166.036 267.631 166.159 267.357C166.717 266.112 166.796 264.689 166.725 263.344C166.603 261.032 166.019 258.751 165.293 256.56C164.674 254.692 163.835 252.917 162.863 251.208C161.316 248.487 159.497 245.922 158.085 243.125C156.509 240.004 155.418 236.681 154.097 233.452C153.739 232.577 153.373 231.687 152.974 230.83C152.575 229.975 152.118 229.141 151.692 228.3C151.471 227.865 150.944 227.696 150.51 227.916C150.075 228.137 149.898 228.664 150.118 229.099C150.536 229.923 150.984 230.741 151.375 231.579C151.763 232.41 152.11 233.269 152.457 234.118C153.796 237.391 154.914 240.752 156.511 243.916C158.661 248.173 161.754 251.935 163.387 256.452C164.194 258.683 164.834 261.057 164.96 263.436C165.017 264.495 164.986 265.647 164.544 266.632C164.443 266.858 164.318 267.081 164.161 267.273C164.035 267.428 163.89 267.586 163.712 267.681C163.401 267.847 163.002 267.834 162.663 267.823C162.297 267.81 161.938 267.773 161.572 267.773C160.965 267.773 160.347 267.807 159.741 267.773C159.495 267.759 159.254 267.716 159.009 267.69C158.123 267.592 157.247 267.447 156.37 267.29C154.518 266.957 152.602 266.605 150.718 266.857C148.728 267.123 146.866 268.001 144.866 268.197C142.689 268.411 140.542 267.74 138.365 267.764C137.798 267.771 137.232 267.819 136.667 267.856C134.658 267.989 132.035 268.296 130.557 266.582C129.611 265.487 129.499 263.98 129.633 262.595C129.756 261.317 130.083 260.069 130.415 258.833C130.695 257.79 130.997 256.757 131.347 255.736C131.997 253.844 132.757 251.991 133.412 250.101C134.027 248.324 134.512 246.504 134.968 244.681C135.739 241.608 136.42 238.514 137.349 235.483C138.321 232.314 139.576 229.224 141.545 226.535C141.832 226.142 141.746 225.591 141.353 225.303C141.157 225.159 140.919 225.11 140.695 225.145Z" fill="#404040"/>
<path d="M143.575 198.016C139.392 198.261 136.098 201.282 134.286 204.883C131.769 209.883 131.778 216.488 135.742 220.757C136.474 221.546 137.316 222.233 138.231 222.797C139.23 223.411 140.314 223.883 141.42 224.27C144.37 225.303 147.659 225.644 150.684 224.72C157.602 222.607 162.087 214.028 159.699 207.164C159.217 205.776 158.453 204.5 157.469 203.41C156.749 202.613 155.923 201.935 154.921 201.529C153.982 201.147 154.918 201.529 150.551 200.105C150.535 200.095 150.517 200.097 150.501 200.089C146.207 198.24 147.709 198.532 146.123 198.207C145.287 198.036 144.427 197.966 143.575 198.016ZM143.684 199.78C144.382 199.74 143.679 199.785 149.611 201.603C149.612 201.605 149.617 201.602 149.619 201.603C149.632 201.611 149.647 201.613 149.66 201.62C152.021 202.597 151.208 202.417 152.083 202.619C152.808 202.786 153.562 202.886 154.255 203.168C155.085 203.506 155.742 204.102 156.32 204.775C157.071 205.649 157.656 206.658 158.035 207.747C158.685 209.618 158.721 211.655 158.309 213.582C157.416 217.767 154.354 221.761 150.168 223.038C147.35 223.898 144.282 223.478 141.569 222.447C140.737 222.131 139.915 221.757 139.155 221.29C138.375 220.81 137.665 220.23 137.041 219.559C133.412 215.651 133.693 209.435 136.209 205.025C137.768 202.29 140.421 199.971 143.684 199.78Z" fill="#404040"/>
<path d="M238.462 208.536C238.462 209.161 237.955 209.668 237.329 209.668C236.704 209.668 236.197 209.161 236.197 208.536C236.197 207.911 236.704 207.404 237.329 207.404C237.955 207.404 238.462 207.911 238.462 208.536Z" fill="#404040"/>
<path d="M238.462 208.536C238.462 209.161 237.955 209.668 237.329 209.668C236.704 209.668 236.197 209.161 236.197 208.536C236.197 207.911 236.704 207.404 237.329 207.404C237.955 207.404 238.462 207.911 238.462 208.536Z" fill="#404040"/>
<path d="M231.668 208.536C231.668 209.161 231.161 209.668 230.535 209.668C229.91 209.668 229.403 209.161 229.403 208.536C229.403 207.911 229.91 207.404 230.535 207.404C231.161 207.404 231.668 207.911 231.668 208.536Z" fill="#404040"/>
<path d="M231.668 208.536C231.668 209.161 231.161 209.668 230.535 209.668C229.91 209.668 229.403 209.161 229.403 208.536C229.403 207.911 229.91 207.404 230.535 207.404C231.161 207.404 231.668 207.911 231.668 208.536Z" fill="#404040"/>
<path d="M246.491 269.792C246.007 269.693 245.571 270.341 245.517 271.233C245.381 273.492 245.245 275.737 245.109 277.996C245.055 278.888 245.407 279.706 245.892 279.805C246.376 279.904 246.812 279.256 246.865 278.364C247.002 276.105 247.137 273.845 247.273 271.586C247.327 270.694 246.975 269.891 246.491 269.792Z" fill="#404040"/>
<path d="M257.689 291.194C257.575 291.185 257.457 291.205 257.341 291.243C256.878 291.395 256.627 291.887 256.779 292.35C256.944 292.848 257.105 293.37 257.127 293.899C257.136 294.123 257.122 294.373 256.986 294.562C256.839 294.765 256.597 294.888 256.374 294.986C256.154 295.083 255.919 295.156 255.69 295.228C255.395 295.32 255.1 295.4 254.803 295.482C254.273 295.629 253.747 295.784 253.213 295.91C250.721 296.496 248.164 296.577 245.616 296.508C244.287 296.472 242.942 296.459 241.62 296.311C241.418 296.288 241.177 296.257 240.976 296.222C240.062 296.063 238.46 295.627 238.512 294.421C238.518 294.294 238.545 294.171 238.583 294.051C238.642 293.861 238.733 293.68 238.845 293.517C238.986 293.311 239.159 293.14 239.342 292.972C239.702 292.643 239.73 292.082 239.4 291.723C239.07 291.364 238.509 291.345 238.15 291.674C236.945 292.784 236.252 294.457 237.169 295.985C237.324 296.244 237.513 296.48 237.735 296.685C238.248 297.163 238.896 297.475 239.559 297.687C241.174 298.202 242.939 298.177 244.615 298.241C247.801 298.361 251.003 298.311 254.108 297.504C254.499 297.403 254.887 297.294 255.277 297.186C256.784 296.769 258.56 296.306 258.855 294.522C258.913 294.171 258.903 293.813 258.86 293.461C258.793 292.893 258.636 292.338 258.457 291.797C258.343 291.45 258.032 291.222 257.689 291.194Z" fill="#404040"/>
<path d="M244.87 280.44C244.529 280.393 244.174 280.55 243.987 280.864C243.739 281.283 243.876 281.823 244.295 282.071C245.752 282.935 247.224 283.7 248.924 282.987C249.382 282.795 249.793 282.518 250.189 282.221C250.579 281.928 250.656 281.379 250.364 280.989C250.071 280.599 249.513 280.522 249.123 280.814C248.845 281.024 248.564 281.219 248.241 281.355C247.168 281.806 246.091 281.088 245.194 280.556C245.09 280.494 244.983 280.455 244.87 280.44Z" fill="#404040"/>
<path d="M218.063 292.92C217.842 292.965 217.64 293.092 217.506 293.295C216.517 294.792 215.854 297.077 216.973 298.68C217.159 298.946 217.385 299.171 217.639 299.371C217.842 299.531 218.073 299.654 218.313 299.746C218.895 299.969 219.527 300.017 220.145 299.996C221.431 299.952 222.65 299.562 223.915 299.388C224.847 299.26 225.791 299.22 226.729 299.155C228.707 299.017 230.714 298.876 232.647 298.414C233.924 298.109 235.422 297.633 236.202 296.491C236.618 295.882 236.613 295.211 236.718 294.51C236.789 294.028 236.451 293.582 235.969 293.511C235.487 293.44 235.041 293.77 234.97 294.252C234.931 294.515 234.906 294.779 234.878 295.043C234.866 295.164 234.857 295.308 234.795 295.417C234.588 295.783 234.181 296.004 233.813 296.175C233.057 296.525 232.23 296.714 231.415 296.866C229.736 297.178 228.023 297.298 226.321 297.415C225.378 297.48 224.426 297.516 223.491 297.665C222.426 297.835 221.383 298.148 220.303 298.223C219.827 298.255 219.275 298.27 218.838 298.048C218.338 297.794 218.156 297.225 218.155 296.699C218.153 295.838 218.509 294.977 218.979 294.269C219.248 293.862 219.136 293.314 218.729 293.045C218.526 292.911 218.285 292.875 218.063 292.92Z" fill="#404040"/>
<path d="M226.129 270.581C225.649 270.528 225.226 270.95 225.181 271.521C224.93 274.755 224.79 277.983 224.769 281.231C224.765 281.804 225.152 282.275 225.635 282.279C226.117 282.284 226.513 281.814 226.517 281.241C226.538 278.051 226.675 274.883 226.921 271.707C226.965 271.136 226.61 270.633 226.129 270.581Z" fill="#404040"/>
<path d="M222.967 283.23C222.744 283.195 222.515 283.246 222.318 283.389C221.689 283.845 221.112 284.353 220.636 284.97C220.001 285.795 219.583 286.749 219.196 287.709C218.648 289.069 218.041 290.454 217.856 291.921C217.746 292.791 217.793 293.696 218.189 294.493C218.33 294.778 218.516 295.04 218.738 295.267C218.926 295.46 219.142 295.626 219.371 295.767C221.132 296.848 223.188 296.072 225.073 295.941C225.81 295.891 226.557 295.918 227.295 295.883C227.851 295.857 228.407 295.823 228.96 295.758C231.217 295.496 234.12 294.801 235.145 292.512C235.272 292.229 235.362 291.935 235.42 291.63C235.502 291.194 235.512 290.747 235.47 290.306C235.411 289.69 235.258 289.11 234.962 288.566C234.476 287.675 233.757 286.94 233.072 286.202C232.704 285.806 232.36 285.383 231.974 285.004C231.489 284.529 230.959 284.113 230.384 283.755C229.97 283.498 229.425 283.632 229.168 284.046C228.911 284.46 229.037 285.005 229.451 285.262C229.918 285.55 230.341 285.885 230.733 286.269C231.1 286.628 231.425 287.025 231.774 287.401C232.293 287.961 232.847 288.505 233.264 289.149C233.809 289.993 233.948 291.199 233.38 292.071C233.074 292.541 232.601 292.879 232.107 293.128C231.463 293.453 230.755 293.651 230.051 293.794C228.955 294.016 227.837 294.109 226.721 294.143C226.132 294.162 225.545 294.136 224.956 294.177C224.645 294.199 224.325 294.24 224.016 294.285C223.707 294.33 223.392 294.389 223.083 294.435C222.116 294.578 220.587 294.83 219.895 293.91C219.471 293.346 219.532 292.533 219.645 291.879C219.857 290.661 220.368 289.507 220.828 288.367C221.178 287.496 221.553 286.621 222.159 285.894C222.506 285.479 222.914 285.129 223.35 284.812C223.744 284.526 223.836 283.975 223.55 283.58C223.406 283.383 223.19 283.266 222.967 283.23Z" fill="#404040"/>
<path d="M223.483 283.006C223.147 283.079 222.867 283.345 222.8 283.705C222.71 284.184 223.028 284.647 223.507 284.737C224.383 284.901 225.261 285.056 226.155 285.062C226.828 285.066 227.491 284.982 228.152 284.862C228.632 284.775 228.947 284.309 228.86 283.83C228.773 283.35 228.316 283.035 227.836 283.122C227.283 283.223 226.735 283.301 226.171 283.297C225.383 283.291 224.604 283.15 223.832 283.006C223.712 282.983 223.594 282.981 223.483 283.006Z" fill="#404040"/>
<path d="M251.273 283.378C250.933 283.326 250.579 283.471 250.387 283.783C250.133 284.198 250.269 284.745 250.685 285C251.05 285.225 251.442 285.425 251.788 285.679C252.019 285.849 252.209 286.086 252.405 286.292C252.687 286.591 252.97 286.888 253.243 287.196C253.837 287.865 254.437 288.59 254.769 289.431C254.93 289.839 255.012 290.284 254.9 290.715C254.811 291.061 254.455 291.313 254.171 291.488C253.581 291.851 252.896 292.081 252.229 292.256C250.906 292.604 249.549 292.78 248.185 292.874C246.785 292.971 245.402 292.967 244.014 292.76C243.072 292.62 242.089 292.468 241.224 292.047C240.889 291.884 240.477 291.637 240.349 291.257C240.294 291.094 240.353 290.925 240.415 290.77C240.543 290.448 240.705 290.148 240.875 289.846C241.18 289.302 241.534 288.788 241.821 288.234C241.995 287.898 242.125 287.543 242.284 287.201C242.512 286.708 242.771 286.23 243.094 285.792C243.442 285.319 243.864 284.907 244.3 284.515C244.663 284.19 244.691 283.63 244.366 283.267C244.04 282.904 243.48 282.876 243.117 283.201C242.592 283.673 242.096 284.177 241.675 284.747C241.198 285.395 240.833 286.105 240.513 286.84C240.43 287.031 240.352 287.231 240.255 287.417C239.843 288.208 239.309 288.931 238.935 289.745C238.66 290.345 238.463 290.987 238.629 291.647C239.071 293.406 241.179 294.037 242.736 294.339C242.995 294.389 243.257 294.427 243.518 294.467C243.974 294.538 244.436 294.616 244.896 294.655C246.338 294.774 247.802 294.704 249.239 294.56C250.789 294.405 252.363 294.147 253.827 293.595C254.977 293.162 256.257 292.443 256.604 291.17C256.686 290.865 256.728 290.551 256.722 290.236C256.716 289.933 256.668 289.638 256.593 289.345C256.471 288.873 256.271 288.424 256.032 288.001C255.628 287.284 255.109 286.636 254.564 286.022C254.28 285.702 253.983 285.394 253.688 285.082C253.442 284.822 253.198 284.552 252.918 284.328C252.516 284.006 252.042 283.763 251.604 283.494C251.5 283.43 251.386 283.395 251.273 283.378Z" fill="#404040"/>
<path d="M229.018 225.144C228.795 225.179 228.588 225.297 228.444 225.494C224.242 231.237 223.075 238.462 221.335 245.197C220.959 246.653 220.554 248.096 220.061 249.518C219.214 251.965 218.191 254.354 217.464 256.843C217.28 257.473 217.108 258.098 216.94 258.732C216.173 261.622 215.389 265.233 217.548 267.731C217.825 268.052 218.134 268.343 218.48 268.588C220.885 270.295 223.982 269.56 226.712 269.529C228.842 269.505 230.92 270.128 233.055 269.978C234.133 269.903 235.182 269.637 236.219 269.346C237.38 269.019 238.546 268.643 239.756 268.555C240.417 268.507 241.088 268.554 241.746 268.622C243.287 268.779 244.799 269.142 246.332 269.354C246.869 269.428 247.423 269.506 247.964 269.537C248.604 269.574 249.254 269.539 249.895 269.537C250.34 269.536 250.782 269.589 251.227 269.587C252.059 269.584 252.808 269.395 253.433 268.83C253.659 268.625 253.866 268.396 254.041 268.147C254.214 267.901 254.359 267.631 254.482 267.356C255.04 266.111 255.119 264.689 255.048 263.344C254.925 261.031 254.342 258.751 253.616 256.56C252.997 254.691 252.158 252.916 251.186 251.207C249.638 248.487 247.82 245.921 246.407 243.125C244.832 240.004 243.741 236.681 242.42 233.452C242.062 232.576 241.696 231.687 241.296 230.83C240.897 229.975 240.441 229.141 240.014 228.299C239.794 227.865 239.267 227.696 238.832 227.916C238.398 228.137 238.221 228.664 238.441 229.098C238.859 229.923 239.307 230.741 239.698 231.579C240.086 232.41 240.433 233.269 240.78 234.118C242.119 237.391 243.237 240.752 244.834 243.915C246.983 248.172 250.077 251.934 251.71 256.452C252.516 258.683 253.157 261.057 253.283 263.436C253.339 264.495 253.308 265.647 252.867 266.632C252.766 266.858 252.641 267.081 252.484 267.273C252.358 267.428 252.213 267.585 252.034 267.681C251.724 267.847 251.325 267.834 250.986 267.822C250.62 267.81 250.261 267.772 249.895 267.772C249.288 267.773 248.67 267.807 248.064 267.772C247.818 267.759 247.576 267.716 247.331 267.689C246.446 267.592 245.569 267.447 244.693 267.29C242.84 266.957 240.925 266.605 239.041 266.857C237.051 267.123 235.189 268 233.189 268.197C231.011 268.411 228.865 267.739 226.687 267.764C226.121 267.771 225.554 267.818 224.989 267.856C222.981 267.988 220.358 268.296 218.879 266.582C217.934 265.486 217.822 263.979 217.955 262.595C218.079 261.317 218.406 260.069 218.738 258.832C219.017 257.79 219.32 256.757 219.67 255.736C220.32 253.843 221.08 251.991 221.734 250.1C222.35 248.324 222.834 246.504 223.291 244.681C224.062 241.608 224.742 238.514 225.672 235.483C226.644 232.314 227.898 229.224 229.867 226.535C230.155 226.141 230.069 225.59 229.676 225.303C229.479 225.158 229.241 225.11 229.018 225.144Z" fill="#404040"/>
<path d="M231.898 198.016C227.715 198.261 224.421 201.282 222.609 204.883C220.092 209.883 220.101 216.488 224.065 220.757C224.797 221.546 225.639 222.233 226.554 222.797C227.553 223.411 228.637 223.883 229.743 224.27C232.693 225.303 235.982 225.644 239.007 224.72C245.925 222.607 250.41 214.028 248.022 207.164C247.54 205.776 246.776 204.5 245.792 203.41C245.072 202.613 244.246 201.935 243.244 201.529C242.305 201.147 243.241 201.529 238.874 200.105C238.858 200.095 238.84 200.097 238.824 200.089C234.53 198.24 236.032 198.532 234.446 198.207C233.61 198.036 232.75 197.966 231.898 198.016ZM232.007 199.78C232.705 199.74 232.002 199.785 237.934 201.603C237.935 201.605 237.94 201.602 237.942 201.603C237.955 201.611 237.97 201.613 237.983 201.62C240.344 202.597 239.531 202.417 240.406 202.619C241.131 202.786 241.885 202.886 242.578 203.168C243.408 203.506 244.065 204.102 244.643 204.775C245.394 205.649 245.979 206.658 246.358 207.747C247.008 209.618 247.044 211.655 246.632 213.582C245.739 217.767 242.677 221.761 238.491 223.038C235.673 223.898 232.605 223.478 229.892 222.447C229.06 222.131 228.238 221.757 227.478 221.29C226.698 220.81 225.988 220.23 225.364 219.559C221.735 215.651 222.016 209.435 224.532 205.025C226.091 202.29 228.744 199.971 232.007 199.78Z" fill="#404040"/>
</svg>
