<svg width="317" height="300" viewBox="0 0 317 300" fill="none" xmlns="http://www.w3.org/2000/svg">
<rect y="37" width="29" height="29" fill="#BEBEBE"/>
<rect width="29" height="29" fill="#A6D4FF"/>
<rect width="29" height="29" fill="#3D628A"/>
<rect x="41" y="37" width="29" height="29" fill="#BEBEBE"/>
<rect x="41" y="74" width="29" height="29" fill="#E0E0E0"/>
<rect y="74" width="29" height="29" fill="#E0E0E0"/>
<rect x="82" y="74" width="29" height="29" fill="#E0E0E0"/>
<rect x="124" y="74" width="28" height="29" fill="#E0E0E0"/>
<rect x="41" y="111" width="29" height="29" fill="#E0E0E0"/>
<rect x="41" y="148" width="29" height="29" fill="#E0E0E0"/>
<rect y="111" width="29" height="29" fill="#E0E0E0"/>
<rect x="82" y="37" width="29" height="29" fill="#BEBEBE"/>
<rect x="124" y="37" width="28" height="29" fill="#BEBEBE"/>
<rect x="124" width="28" height="29" fill="#3D628A"/>
<rect x="165" y="37" width="28" height="29" fill="#BEBEBE"/>
<rect x="165" y="74" width="28" height="29" fill="#E0E0E0"/>
<rect x="165" y="111" width="28" height="29" fill="#E0E0E0"/>
<rect x="206" y="37" width="29" height="29" fill="#BEBEBE"/>
<rect x="206" y="74" width="29" height="29" fill="#E0E0E0"/>
<rect x="247" y="74" width="29" height="29" fill="#E0E0E0"/>
<rect x="206" y="111" width="29" height="29" fill="#E0E0E0"/>
<rect x="206" y="148" width="29" height="29" fill="#E0E0E0"/>
<rect x="247" y="37" width="29" height="29" fill="#BEBEBE"/>
<rect x="288" y="37" width="29" height="29" fill="#BEBEBE"/>
<rect x="288" width="29" height="29" fill="#3D628A"/>
<path d="M160.433 208.536C160.433 209.161 159.926 209.668 159.301 209.668C158.675 209.668 158.168 209.161 158.168 208.536C158.168 207.911 158.675 207.404 159.301 207.404C159.926 207.404 160.433 207.911 160.433 208.536Z" fill="#404040"/>
<path d="M160.433 208.536C160.433 209.161 159.926 209.668 159.301 209.668C158.675 209.668 158.168 209.161 158.168 208.536C158.168 207.911 158.675 207.404 159.301 207.404C159.926 207.404 160.433 207.911 160.433 208.536Z" fill="#404040"/>
<path d="M153.639 208.536C153.639 209.161 153.132 209.668 152.506 209.668C151.881 209.668 151.374 209.161 151.374 208.536C151.374 207.911 151.881 207.404 152.506 207.404C153.132 207.404 153.639 207.911 153.639 208.536Z" fill="#404040"/>
<path d="M153.639 208.536C153.639 209.161 153.132 209.668 152.506 209.668C151.881 209.668 151.374 209.161 151.374 208.536C151.374 207.911 151.881 207.404 152.506 207.404C153.132 207.404 153.639 207.911 153.639 208.536Z" fill="#404040"/>
<path d="M168.462 269.792C167.977 269.693 167.542 270.341 167.488 271.233C167.351 273.492 167.216 275.737 167.08 277.996C167.026 278.888 167.378 279.706 167.862 279.805C168.347 279.904 168.782 279.256 168.836 278.364C168.972 276.105 169.108 273.845 169.244 271.586C169.298 270.694 168.946 269.891 168.462 269.792Z" fill="#404040"/>
<path d="M179.66 291.194C179.546 291.185 179.428 291.205 179.312 291.243C178.849 291.395 178.597 291.887 178.75 292.35C178.915 292.848 179.076 293.37 179.098 293.899C179.107 294.123 179.092 294.373 178.956 294.562C178.81 294.765 178.568 294.888 178.345 294.986C178.125 295.083 177.89 295.156 177.66 295.228C177.366 295.32 177.071 295.4 176.773 295.482C176.244 295.629 175.718 295.784 175.183 295.91C172.691 296.496 170.135 296.577 167.586 296.508C166.258 296.472 164.913 296.459 163.591 296.311C163.389 296.288 163.148 296.257 162.947 296.222C162.032 296.063 160.431 295.627 160.483 294.421C160.488 294.294 160.516 294.171 160.553 294.051C160.612 293.861 160.703 293.68 160.816 293.517C160.957 293.311 161.129 293.14 161.313 292.972C161.672 292.643 161.7 292.082 161.371 291.723C161.041 291.364 160.48 291.345 160.121 291.674C158.916 292.784 158.223 294.457 159.139 295.985C159.295 296.244 159.484 296.48 159.705 296.685C160.219 297.163 160.866 297.475 161.53 297.687C163.144 298.202 164.91 298.177 166.586 298.241C169.772 298.361 172.974 298.311 176.078 297.504C176.47 297.403 176.858 297.294 177.248 297.186C178.755 296.769 180.531 296.306 180.826 294.522C180.884 294.171 180.873 293.813 180.831 293.461C180.763 292.893 180.606 292.338 180.428 291.797C180.313 291.45 180.003 291.222 179.66 291.194Z" fill="#404040"/>
<path d="M166.841 280.439C166.5 280.393 166.145 280.55 165.958 280.864C165.71 281.283 165.847 281.822 166.266 282.071C167.723 282.935 169.195 283.7 170.895 282.987C171.353 282.794 171.764 282.517 172.16 282.221C172.549 281.928 172.627 281.379 172.335 280.989C172.042 280.599 171.484 280.522 171.094 280.814C170.816 281.024 170.535 281.219 170.212 281.355C169.139 281.806 168.062 281.088 167.165 280.556C167.061 280.494 166.954 280.455 166.841 280.439Z" fill="#404040"/>
<path d="M140.035 292.92C139.813 292.965 139.611 293.091 139.477 293.295C138.489 294.792 137.825 297.077 138.944 298.68C139.13 298.946 139.356 299.171 139.61 299.371C139.813 299.531 140.044 299.654 140.284 299.746C140.866 299.969 141.498 300.017 142.116 299.996C143.402 299.952 144.621 299.562 145.887 299.388C146.818 299.26 147.763 299.22 148.7 299.155C150.678 299.017 152.685 298.876 154.619 298.414C155.895 298.109 157.394 297.633 158.173 296.491C158.589 295.882 158.585 295.211 158.689 294.51C158.76 294.028 158.422 293.582 157.94 293.511C157.458 293.44 157.012 293.77 156.941 294.252C156.902 294.515 156.877 294.779 156.849 295.043C156.837 295.164 156.828 295.308 156.766 295.417C156.559 295.783 156.152 296.004 155.784 296.175C155.028 296.525 154.201 296.714 153.387 296.866C151.707 297.178 149.994 297.298 148.292 297.415C147.349 297.48 146.397 297.516 145.462 297.665C144.397 297.835 143.354 298.148 142.274 298.223C141.799 298.255 141.247 298.269 140.809 298.048C140.309 297.794 140.128 297.225 140.126 296.699C140.124 295.838 140.481 294.977 140.95 294.269C141.219 293.862 141.107 293.314 140.701 293.045C140.497 292.911 140.256 292.875 140.035 292.92Z" fill="#404040"/>
<path d="M148.101 270.581C147.62 270.528 147.197 270.95 147.152 271.521C146.901 274.755 146.761 277.983 146.74 281.231C146.736 281.804 147.123 282.275 147.606 282.279C148.089 282.284 148.484 281.814 148.488 281.241C148.509 278.051 148.646 274.883 148.892 271.707C148.936 271.136 148.581 270.633 148.101 270.581Z" fill="#404040"/>
<path d="M144.938 283.23C144.715 283.195 144.486 283.246 144.289 283.389C143.66 283.845 143.082 284.353 142.607 284.97C141.972 285.795 141.553 286.749 141.167 287.709C140.619 289.069 140.012 290.454 139.827 291.921C139.717 292.791 139.764 293.696 140.16 294.493C140.301 294.778 140.487 295.04 140.709 295.267C140.897 295.46 141.113 295.626 141.342 295.767C143.102 296.848 145.159 296.072 147.044 295.941C147.781 295.891 148.528 295.918 149.266 295.883C149.822 295.857 150.378 295.823 150.931 295.758C153.188 295.496 156.091 294.801 157.116 292.512C157.243 292.229 157.333 291.935 157.391 291.63C157.473 291.194 157.483 290.747 157.441 290.306C157.382 289.69 157.229 289.11 156.933 288.566C156.447 287.675 155.728 286.94 155.043 286.202C154.675 285.806 154.331 285.383 153.945 285.004C153.46 284.529 152.93 284.113 152.355 283.755C151.941 283.498 151.396 283.632 151.139 284.046C150.882 284.46 151.008 285.005 151.422 285.262C151.889 285.55 152.312 285.885 152.704 286.269C153.071 286.628 153.396 287.025 153.745 287.401C154.264 287.961 154.818 288.505 155.235 289.149C155.78 289.993 155.919 291.199 155.351 292.071C155.045 292.541 154.572 292.879 154.078 293.128C153.434 293.453 152.726 293.651 152.022 293.794C150.926 294.016 149.808 294.109 148.692 294.143C148.103 294.162 147.515 294.136 146.927 294.177C146.616 294.199 146.296 294.24 145.987 294.285C145.678 294.33 145.363 294.389 145.054 294.435C144.087 294.578 142.558 294.83 141.866 293.91C141.442 293.346 141.503 292.533 141.616 291.879C141.828 290.661 142.339 289.507 142.799 288.367C143.149 287.496 143.524 286.621 144.13 285.894C144.477 285.479 144.884 285.129 145.321 284.812C145.715 284.526 145.807 283.975 145.521 283.58C145.377 283.383 145.161 283.266 144.938 283.23Z" fill="#404040"/>
<path d="M145.454 283.006C145.118 283.079 144.838 283.346 144.771 283.705C144.681 284.184 145 284.647 145.479 284.737C146.354 284.901 147.232 285.056 148.126 285.062C148.799 285.066 149.462 284.982 150.124 284.862C150.603 284.775 150.918 284.309 150.831 283.83C150.744 283.35 150.287 283.035 149.807 283.122C149.254 283.223 148.706 283.301 148.142 283.297C147.355 283.291 146.575 283.15 145.803 283.006C145.684 282.983 145.566 282.981 145.454 283.006Z" fill="#404040"/>
<path d="M173.244 283.378C172.904 283.326 172.55 283.471 172.359 283.783C172.104 284.198 172.24 284.745 172.656 285C173.022 285.225 173.413 285.425 173.759 285.679C173.991 285.849 174.18 286.086 174.376 286.292C174.658 286.591 174.942 286.888 175.214 287.196C175.808 287.865 176.408 288.59 176.74 289.431C176.901 289.839 176.983 290.284 176.871 290.715C176.782 291.061 176.426 291.313 176.142 291.488C175.552 291.851 174.867 292.081 174.2 292.256C172.877 292.604 171.52 292.78 170.157 292.874C168.756 292.971 167.374 292.967 165.985 292.76C165.043 292.62 164.06 292.468 163.196 292.047C162.86 291.884 162.449 291.637 162.32 291.257C162.265 291.094 162.324 290.925 162.386 290.77C162.514 290.448 162.676 290.148 162.846 289.846C163.151 289.302 163.505 288.788 163.793 288.233C163.967 287.898 164.096 287.543 164.255 287.2C164.484 286.708 164.742 286.23 165.065 285.792C165.414 285.319 165.835 284.907 166.271 284.515C166.634 284.19 166.662 283.63 166.337 283.267C166.011 282.904 165.451 282.876 165.089 283.201C164.563 283.673 164.067 284.177 163.646 284.747C163.169 285.395 162.805 286.105 162.484 286.84C162.401 287.031 162.323 287.231 162.226 287.417C161.814 288.207 161.281 288.931 160.907 289.745C160.631 290.345 160.434 290.987 160.6 291.647C161.043 293.406 163.15 294.037 164.707 294.339C164.966 294.389 165.229 294.427 165.489 294.467C165.946 294.538 166.407 294.616 166.867 294.655C168.31 294.774 169.773 294.704 171.21 294.56C172.761 294.405 174.335 294.147 175.798 293.595C176.948 293.162 178.228 292.443 178.575 291.169C178.658 290.865 178.699 290.551 178.693 290.236C178.687 289.933 178.64 289.638 178.564 289.345C178.442 288.873 178.242 288.424 178.003 288.001C177.599 287.284 177.081 286.636 176.536 286.022C176.251 285.701 175.954 285.394 175.659 285.082C175.413 284.822 175.169 284.552 174.889 284.328C174.487 284.006 174.013 283.763 173.575 283.494C173.471 283.43 173.357 283.395 173.244 283.378Z" fill="#404040"/>
<path d="M150.989 225.144C150.766 225.179 150.559 225.297 150.415 225.494C146.213 231.237 145.046 238.462 143.306 245.197C142.93 246.653 142.525 248.096 142.033 249.517C141.185 251.965 140.162 254.354 139.435 256.843C139.251 257.473 139.08 258.098 138.911 258.732C138.144 261.622 137.36 265.233 139.519 267.731C139.796 268.052 140.105 268.343 140.451 268.588C142.856 270.295 145.954 269.56 148.684 269.529C150.814 269.505 152.891 270.128 155.027 269.978C156.105 269.903 157.153 269.637 158.19 269.346C159.351 269.019 160.517 268.643 161.727 268.555C162.388 268.507 163.059 268.554 163.717 268.622C165.258 268.779 166.771 269.142 168.304 269.354C168.84 269.428 169.394 269.506 169.935 269.537C170.576 269.574 171.225 269.539 171.866 269.537C172.312 269.536 172.753 269.589 173.198 269.587C174.03 269.584 174.779 269.395 175.404 268.83C175.63 268.625 175.837 268.396 176.012 268.147C176.185 267.901 176.33 267.631 176.453 267.356C177.011 266.111 177.09 264.689 177.019 263.344C176.897 261.031 176.313 258.751 175.587 256.56C174.968 254.691 174.129 252.916 173.157 251.207C171.61 248.487 169.791 245.921 168.379 243.125C166.803 240.004 165.712 236.681 164.391 233.452C164.033 232.576 163.667 231.687 163.268 230.83C162.869 229.975 162.412 229.141 161.986 228.299C161.765 227.865 161.238 227.696 160.804 227.916C160.369 228.136 160.192 228.664 160.412 229.098C160.83 229.923 161.278 230.741 161.669 231.579C162.057 232.41 162.404 233.269 162.751 234.118C164.09 237.391 165.208 240.752 166.805 243.915C168.955 248.172 172.048 251.934 173.681 256.451C174.488 258.683 175.128 261.057 175.254 263.436C175.311 264.495 175.279 265.647 174.838 266.632C174.737 266.858 174.612 267.081 174.455 267.273C174.329 267.428 174.184 267.585 174.006 267.681C173.695 267.847 173.296 267.834 172.957 267.822C172.591 267.81 172.232 267.772 171.866 267.772C171.259 267.773 170.641 267.807 170.035 267.772C169.789 267.758 169.548 267.716 169.303 267.689C168.417 267.591 167.541 267.447 166.664 267.29C164.812 266.957 162.896 266.605 161.012 266.857C159.022 267.123 157.16 268 155.16 268.197C152.983 268.411 150.836 267.739 148.659 267.764C148.092 267.77 147.525 267.818 146.96 267.856C144.952 267.988 142.329 268.296 140.851 266.582C139.905 265.486 139.793 263.979 139.927 262.595C140.05 261.317 140.377 260.069 140.709 258.832C140.989 257.79 141.291 256.757 141.641 255.736C142.291 253.843 143.051 251.991 143.706 250.1C144.321 248.324 144.806 246.504 145.262 244.681C146.033 241.608 146.714 238.514 147.643 235.483C148.615 232.313 149.87 229.224 151.839 226.535C152.126 226.141 152.04 225.59 151.647 225.303C151.45 225.158 151.213 225.11 150.989 225.144Z" fill="#404040"/>
<path d="M153.869 198.016C149.686 198.261 146.392 201.282 144.579 204.883C142.063 209.883 142.071 216.488 146.036 220.757C146.768 221.546 147.609 222.233 148.525 222.797C149.524 223.411 150.608 223.883 151.713 224.27C154.663 225.303 157.953 225.644 160.978 224.72C167.895 222.607 172.381 214.028 169.993 207.164C169.51 205.776 168.747 204.5 167.762 203.41C167.043 202.613 166.216 201.935 165.215 201.529C164.275 201.147 165.211 201.529 160.845 200.105C160.829 200.095 160.811 200.097 160.795 200.089C156.501 198.24 158.003 198.532 156.416 198.207C155.581 198.036 154.721 197.966 153.869 198.016ZM153.977 199.78C154.676 199.74 153.972 199.785 159.904 201.603C159.906 201.605 159.91 201.602 159.912 201.603C159.925 201.611 159.941 201.613 159.954 201.62C162.314 202.597 161.501 202.417 162.376 202.619C163.101 202.786 163.855 202.886 164.549 203.168C165.378 203.506 166.036 204.102 166.613 204.775C167.364 205.649 167.949 206.658 168.328 207.747C168.979 209.618 169.014 211.655 168.603 213.582C167.709 217.767 164.648 221.761 160.462 223.038C157.644 223.898 154.576 223.478 151.863 222.447C151.031 222.131 150.208 221.757 149.449 221.29C148.669 220.81 147.958 220.23 147.334 219.559C143.705 215.651 143.986 209.435 146.502 205.025C148.062 202.29 150.715 199.971 153.977 199.78Z" fill="#404040"/>
<path d="M115.139 208.536C115.139 209.161 114.632 209.668 114.007 209.668C113.381 209.668 112.874 209.161 112.874 208.536C112.874 207.911 113.381 207.404 114.007 207.404C114.632 207.404 115.139 207.911 115.139 208.536Z" fill="#404040"/>
<path d="M115.139 208.536C115.139 209.161 114.632 209.668 114.007 209.668C113.381 209.668 112.874 209.161 112.874 208.536C112.874 207.911 113.381 207.404 114.007 207.404C114.632 207.404 115.139 207.911 115.139 208.536Z" fill="#404040"/>
<path d="M108.345 208.536C108.345 209.161 107.838 209.668 107.212 209.668C106.587 209.668 106.08 209.161 106.08 208.536C106.08 207.911 106.587 207.404 107.212 207.404C107.838 207.404 108.345 207.911 108.345 208.536Z" fill="#404040"/>
<path d="M108.345 208.536C108.345 209.161 107.838 209.668 107.212 209.668C106.587 209.668 106.08 209.161 106.08 208.536C106.08 207.911 106.587 207.404 107.212 207.404C107.838 207.404 108.345 207.911 108.345 208.536Z" fill="#404040"/>
<path d="M123.168 269.792C122.684 269.693 122.248 270.341 122.194 271.233C122.058 273.493 121.923 275.737 121.786 277.996C121.732 278.888 122.085 279.706 122.569 279.806C123.053 279.905 123.489 279.257 123.543 278.364C123.679 276.105 123.814 273.845 123.95 271.586C124.004 270.694 123.652 269.891 123.168 269.792Z" fill="#404040"/>
<path d="M134.366 291.194C134.252 291.185 134.134 291.205 134.018 291.243C133.555 291.395 133.303 291.887 133.456 292.35C133.621 292.848 133.782 293.37 133.804 293.899C133.813 294.123 133.798 294.373 133.662 294.562C133.516 294.765 133.274 294.888 133.051 294.986C132.831 295.083 132.596 295.156 132.367 295.228C132.072 295.32 131.777 295.4 131.479 295.482C130.95 295.629 130.424 295.784 129.889 295.91C127.397 296.496 124.841 296.577 122.292 296.508C120.964 296.472 119.619 296.459 118.297 296.311C118.095 296.288 117.854 296.257 117.653 296.222C116.739 296.063 115.137 295.627 115.189 294.421C115.194 294.294 115.222 294.171 115.259 294.051C115.318 293.861 115.409 293.68 115.522 293.517C115.663 293.311 115.835 293.14 116.019 292.972C116.378 292.643 116.406 292.082 116.077 291.723C115.747 291.364 115.186 291.345 114.827 291.674C113.622 292.784 112.929 294.457 113.845 295.985C114.001 296.244 114.19 296.48 114.411 296.685C114.925 297.163 115.572 297.475 116.236 297.687C117.85 298.202 119.616 298.177 121.292 298.241C124.478 298.361 127.68 298.311 130.785 297.504C131.176 297.403 131.564 297.294 131.954 297.186C133.461 296.769 135.237 296.306 135.532 294.522C135.59 294.171 135.579 293.813 135.537 293.461C135.469 292.893 135.312 292.338 135.134 291.797C135.019 291.45 134.709 291.222 134.366 291.194Z" fill="#404040"/>
<path d="M121.547 280.439C121.206 280.393 120.851 280.55 120.664 280.864C120.416 281.283 120.553 281.822 120.972 282.071C122.429 282.935 123.901 283.7 125.601 282.987C126.059 282.794 126.47 282.517 126.866 282.221C127.256 281.928 127.333 281.379 127.041 280.989C126.748 280.599 126.19 280.522 125.8 280.814C125.522 281.024 125.241 281.219 124.918 281.355C123.845 281.806 122.768 281.088 121.871 280.556C121.767 280.494 121.66 280.455 121.547 280.439Z" fill="#404040"/>
<path d="M94.7407 292.92C94.5193 292.965 94.3174 293.091 94.1829 293.295C93.1947 294.792 92.5308 297.077 93.6502 298.68C93.8358 298.946 94.062 299.171 94.3161 299.371C94.5191 299.531 94.75 299.654 94.9903 299.746C95.5718 299.969 96.2039 300.017 96.8219 299.996C98.1082 299.952 99.3268 299.562 100.593 299.388C101.524 299.26 102.469 299.22 103.406 299.155C105.384 299.017 107.391 298.876 109.325 298.414C110.601 298.109 112.1 297.633 112.879 296.491C113.295 295.882 113.291 295.211 113.395 294.51C113.466 294.028 113.128 293.582 112.646 293.511C112.164 293.44 111.718 293.77 111.647 294.252C111.609 294.515 111.583 294.779 111.556 295.043C111.543 295.164 111.534 295.308 111.472 295.417C111.265 295.783 110.858 296.004 110.49 296.175C109.734 296.525 108.907 296.714 108.093 296.866C106.413 297.178 104.7 297.298 102.998 297.415C102.055 297.48 101.103 297.516 100.168 297.665C99.1028 297.835 98.0605 298.148 96.9798 298.223C96.5046 298.255 95.9527 298.269 95.5148 298.048C95.0148 297.794 94.8336 297.225 94.8323 296.699C94.8299 295.838 95.1866 294.977 95.6562 294.269C95.9252 293.862 95.8131 293.314 95.4066 293.045C95.2034 292.911 94.962 292.875 94.7407 292.92Z" fill="#404040"/>
<path d="M102.807 270.581C102.326 270.528 101.903 270.95 101.858 271.521C101.608 274.755 101.467 277.983 101.446 281.231C101.442 281.804 101.829 282.275 102.312 282.279C102.795 282.284 103.19 281.814 103.194 281.241C103.215 278.051 103.352 274.883 103.598 271.707C103.642 271.136 103.287 270.633 102.807 270.581Z" fill="#404040"/>
<path d="M99.6438 283.23C99.4209 283.195 99.1918 283.246 98.9947 283.389C98.3663 283.845 97.7885 284.353 97.3131 284.97C96.6778 285.795 96.2595 286.749 95.873 287.709C95.3254 289.069 94.7183 290.454 94.5329 291.921C94.4229 292.791 94.4698 293.696 94.8659 294.493C95.0073 294.778 95.1933 295.04 95.4151 295.267C95.6029 295.46 95.819 295.626 96.0478 295.767C97.8085 296.848 99.8649 296.072 101.75 295.941C102.487 295.891 103.234 295.918 103.972 295.883C104.528 295.857 105.085 295.823 105.637 295.758C107.894 295.496 110.797 294.801 111.822 292.512C111.949 292.229 112.039 291.935 112.097 291.63C112.179 291.194 112.189 290.747 112.147 290.306C112.088 289.69 111.935 289.11 111.639 288.566C111.153 287.675 110.434 286.94 109.749 286.202C109.381 285.806 109.037 285.383 108.651 285.004C108.166 284.529 107.636 284.113 107.061 283.755C106.647 283.498 106.102 283.632 105.845 284.046C105.588 284.46 105.714 285.005 106.128 285.262C106.595 285.55 107.018 285.885 107.41 286.269C107.777 286.628 108.102 287.025 108.451 287.401C108.97 287.961 109.524 288.505 109.941 289.149C110.486 289.993 110.625 291.199 110.057 292.071C109.751 292.541 109.278 292.879 108.784 293.128C108.14 293.453 107.432 293.651 106.728 293.794C105.632 294.016 104.514 294.109 103.398 294.143C102.809 294.162 102.222 294.136 101.633 294.177C101.322 294.199 101.002 294.24 100.693 294.285C100.384 294.33 100.069 294.389 99.7605 294.435C98.7933 294.578 97.2638 294.83 96.5723 293.91C96.1482 293.346 96.2092 292.533 96.3224 291.879C96.5339 290.661 97.0453 289.507 97.5046 288.367C97.8551 287.496 98.2296 286.621 98.8364 285.894C99.1827 285.479 99.5905 285.129 100.027 284.812C100.421 284.526 100.513 283.975 100.227 283.58C100.083 283.383 99.8668 283.266 99.6438 283.23Z" fill="#404040"/>
<path d="M100.16 283.006C99.8239 283.079 99.5445 283.346 99.4771 283.705C99.3873 284.184 99.7056 284.647 100.185 284.737C101.06 284.901 101.938 285.056 102.832 285.062C103.505 285.066 104.168 284.982 104.83 284.862C105.309 284.775 105.624 284.309 105.537 283.83C105.45 283.35 104.993 283.035 104.513 283.122C103.96 283.223 103.412 283.301 102.848 283.297C102.061 283.291 101.281 283.15 100.509 283.006C100.39 282.983 100.272 282.981 100.16 283.006Z" fill="#404040"/>
<path d="M127.95 283.378C127.61 283.326 127.256 283.471 127.065 283.783C126.81 284.198 126.946 284.745 127.362 285C127.728 285.225 128.119 285.425 128.465 285.679C128.697 285.849 128.886 286.086 129.082 286.292C129.364 286.591 129.648 286.888 129.92 287.196C130.514 287.865 131.114 288.59 131.446 289.431C131.607 289.839 131.689 290.284 131.578 290.715C131.488 291.061 131.132 291.313 130.848 291.488C130.258 291.851 129.573 292.081 128.906 292.256C127.583 292.604 126.226 292.78 124.863 292.874C123.462 292.971 122.08 292.967 120.691 292.76C119.749 292.62 118.766 292.468 117.902 292.047C117.566 291.884 117.155 291.637 117.026 291.257C116.972 291.094 117.03 290.925 117.092 290.77C117.22 290.448 117.382 290.148 117.552 289.846C117.857 289.302 118.211 288.788 118.499 288.233C118.673 287.898 118.803 287.543 118.961 287.2C119.19 286.708 119.448 286.23 119.771 285.792C120.12 285.319 120.541 284.907 120.977 284.515C121.34 284.19 121.368 283.63 121.043 283.267C120.717 282.904 120.157 282.876 119.795 283.201C119.269 283.673 118.773 284.177 118.353 284.747C117.875 285.395 117.511 286.105 117.19 286.84C117.107 287.031 117.029 287.231 116.932 287.417C116.52 288.207 115.987 288.931 115.613 289.745C115.337 290.345 115.14 290.987 115.306 291.647C115.749 293.406 117.856 294.037 119.413 294.339C119.672 294.389 119.935 294.427 120.195 294.467C120.652 294.538 121.113 294.616 121.573 294.655C123.016 294.774 124.479 294.704 125.916 294.56C127.467 294.405 129.041 294.147 130.505 293.595C131.654 293.162 132.934 292.443 133.281 291.169C133.364 290.865 133.405 290.551 133.399 290.236C133.393 289.933 133.346 289.638 133.27 289.345C133.148 288.873 132.948 288.424 132.71 288.001C132.305 287.284 131.787 286.636 131.242 286.022C130.957 285.701 130.66 285.394 130.365 285.082C130.119 284.822 129.875 284.552 129.595 284.328C129.193 284.006 128.719 283.763 128.281 283.494C128.178 283.43 128.063 283.395 127.95 283.378Z" fill="#404040"/>
<path d="M105.695 225.145C105.472 225.179 105.265 225.297 105.121 225.494C100.919 231.237 99.7524 238.463 98.0122 245.197C97.636 246.653 97.2309 248.097 96.7386 249.518C95.8908 251.965 94.8684 254.354 94.1415 256.843C93.9574 257.474 93.7856 258.098 93.617 258.733C92.8501 261.622 92.0659 265.234 94.2249 267.731C94.5022 268.052 94.8112 268.343 95.1572 268.589C97.562 270.295 100.66 269.56 103.39 269.529C105.52 269.505 107.597 270.129 109.733 269.978C110.811 269.903 111.859 269.637 112.896 269.346C114.057 269.02 115.223 268.643 116.433 268.555C117.094 268.507 117.765 268.554 118.423 268.622C119.965 268.779 121.477 269.142 123.01 269.354C123.546 269.429 124.1 269.506 124.641 269.537C125.282 269.574 125.931 269.539 126.572 269.537C127.018 269.536 127.459 269.589 127.904 269.587C128.736 269.584 129.485 269.395 130.11 268.83C130.336 268.626 130.543 268.396 130.718 268.147C130.891 267.901 131.036 267.631 131.159 267.357C131.717 266.112 131.796 264.689 131.725 263.344C131.603 261.032 131.019 258.751 130.293 256.56C129.674 254.692 128.835 252.917 127.863 251.208C126.316 248.487 124.497 245.922 123.085 243.125C121.509 240.004 120.418 236.681 119.097 233.452C118.739 232.577 118.373 231.687 117.974 230.83C117.575 229.975 117.118 229.141 116.692 228.3C116.471 227.865 115.944 227.696 115.51 227.916C115.075 228.137 114.898 228.664 115.118 229.099C115.536 229.923 115.984 230.741 116.375 231.579C116.763 232.41 117.11 233.269 117.457 234.118C118.796 237.391 119.914 240.752 121.511 243.916C123.661 248.173 126.754 251.935 128.387 256.452C129.194 258.683 129.834 261.057 129.96 263.436C130.017 264.495 129.986 265.647 129.544 266.632C129.443 266.858 129.318 267.081 129.161 267.273C129.035 267.428 128.89 267.586 128.712 267.681C128.401 267.847 128.002 267.834 127.663 267.823C127.297 267.81 126.938 267.773 126.572 267.773C125.965 267.773 125.347 267.807 124.741 267.773C124.495 267.759 124.254 267.716 124.009 267.69C123.123 267.592 122.247 267.447 121.37 267.29C119.518 266.957 117.602 266.605 115.718 266.857C113.728 267.123 111.866 268.001 109.866 268.197C107.689 268.411 105.542 267.74 103.365 267.764C102.798 267.771 102.232 267.819 101.667 267.856C99.6584 267.989 97.0348 268.296 95.5567 266.582C94.6114 265.487 94.499 263.98 94.6327 262.595C94.756 261.317 95.0834 260.069 95.415 258.833C95.6947 257.79 95.9971 256.757 96.3473 255.736C96.9968 253.844 97.757 251.991 98.4117 250.101C99.027 248.324 99.5116 246.504 99.9684 244.681C100.739 241.608 101.42 238.514 102.349 235.483C103.321 232.314 104.576 229.224 106.545 226.535C106.832 226.142 106.746 225.591 106.353 225.303C106.157 225.159 105.919 225.11 105.695 225.145Z" fill="#404040"/>
<path d="M108.575 198.016C104.392 198.261 101.098 201.282 99.2858 204.883C96.7691 209.883 96.7776 216.488 100.742 220.757C101.474 221.546 102.316 222.233 103.231 222.797C104.23 223.411 105.314 223.883 106.42 224.27C109.37 225.303 112.659 225.644 115.684 224.72C122.602 222.607 127.087 214.028 124.699 207.164C124.217 205.776 123.453 204.5 122.469 203.41C121.749 202.613 120.923 201.935 119.921 201.529C118.982 201.147 119.918 201.529 115.551 200.105C115.535 200.095 115.517 200.097 115.501 200.089C111.207 198.24 112.709 198.532 111.123 198.207C110.287 198.036 109.427 197.966 108.575 198.016ZM108.684 199.78C109.382 199.74 108.679 199.785 114.611 201.603C114.612 201.605 114.617 201.602 114.619 201.603C114.632 201.611 114.647 201.613 114.66 201.62C117.021 202.597 116.208 202.417 117.083 202.619C117.808 202.786 118.562 202.886 119.255 203.168C120.085 203.506 120.742 204.102 121.32 204.775C122.071 205.649 122.656 206.658 123.035 207.747C123.685 209.618 123.721 211.655 123.309 213.582C122.416 217.767 119.354 221.761 115.168 223.038C112.35 223.898 109.282 223.478 106.569 222.447C105.737 222.131 104.915 221.757 104.155 221.29C103.375 220.81 102.665 220.23 102.041 219.559C98.4116 215.651 98.6929 209.435 101.209 205.025C102.768 202.29 105.421 199.971 108.684 199.78Z" fill="#404040"/>
<path d="M203.462 208.536C203.462 209.161 202.955 209.668 202.329 209.668C201.704 209.668 201.197 209.161 201.197 208.536C201.197 207.911 201.704 207.404 202.329 207.404C202.955 207.404 203.462 207.911 203.462 208.536Z" fill="#404040"/>
<path d="M203.462 208.536C203.462 209.161 202.955 209.668 202.329 209.668C201.704 209.668 201.197 209.161 201.197 208.536C201.197 207.911 201.704 207.404 202.329 207.404C202.955 207.404 203.462 207.911 203.462 208.536Z" fill="#404040"/>
<path d="M196.668 208.536C196.668 209.161 196.161 209.668 195.535 209.668C194.91 209.668 194.403 209.161 194.403 208.536C194.403 207.911 194.91 207.404 195.535 207.404C196.161 207.404 196.668 207.911 196.668 208.536Z" fill="#404040"/>
<path d="M196.668 208.536C196.668 209.161 196.161 209.668 195.535 209.668C194.91 209.668 194.403 209.161 194.403 208.536C194.403 207.911 194.91 207.404 195.535 207.404C196.161 207.404 196.668 207.911 196.668 208.536Z" fill="#404040"/>
<path d="M211.491 269.792C211.007 269.693 210.571 270.341 210.517 271.233C210.381 273.492 210.245 275.737 210.109 277.996C210.055 278.888 210.407 279.706 210.892 279.805C211.376 279.904 211.812 279.256 211.865 278.364C212.002 276.105 212.137 273.845 212.273 271.586C212.327 270.694 211.975 269.891 211.491 269.792Z" fill="#404040"/>
<path d="M222.689 291.194C222.575 291.185 222.457 291.205 222.341 291.243C221.878 291.395 221.627 291.887 221.779 292.35C221.944 292.848 222.105 293.37 222.127 293.899C222.136 294.123 222.122 294.373 221.986 294.562C221.839 294.765 221.597 294.888 221.374 294.986C221.154 295.083 220.919 295.156 220.69 295.228C220.395 295.32 220.1 295.4 219.803 295.482C219.273 295.629 218.747 295.784 218.213 295.91C215.721 296.496 213.164 296.577 210.616 296.508C209.287 296.472 207.942 296.459 206.62 296.311C206.418 296.288 206.177 296.257 205.976 296.222C205.062 296.063 203.46 295.627 203.512 294.421C203.518 294.294 203.545 294.171 203.583 294.051C203.642 293.861 203.733 293.68 203.845 293.517C203.986 293.311 204.159 293.14 204.342 292.972C204.702 292.643 204.73 292.082 204.4 291.723C204.07 291.364 203.509 291.345 203.15 291.674C201.945 292.784 201.252 294.457 202.169 295.985C202.324 296.244 202.513 296.48 202.735 296.685C203.248 297.163 203.896 297.475 204.559 297.687C206.174 298.202 207.939 298.177 209.615 298.241C212.801 298.361 216.003 298.311 219.108 297.504C219.499 297.403 219.887 297.294 220.277 297.186C221.784 296.769 223.56 296.306 223.855 294.522C223.913 294.171 223.903 293.813 223.86 293.461C223.793 292.893 223.636 292.338 223.457 291.797C223.343 291.45 223.032 291.222 222.689 291.194Z" fill="#404040"/>
<path d="M209.87 280.439C209.529 280.393 209.174 280.55 208.987 280.864C208.739 281.283 208.876 281.822 209.295 282.071C210.752 282.935 212.224 283.7 213.924 282.987C214.382 282.794 214.793 282.517 215.189 282.221C215.579 281.928 215.656 281.379 215.364 280.989C215.071 280.599 214.513 280.522 214.123 280.814C213.845 281.024 213.564 281.219 213.241 281.355C212.168 281.806 211.091 281.088 210.194 280.556C210.09 280.494 209.983 280.455 209.87 280.439Z" fill="#404040"/>
<path d="M183.063 292.92C182.842 292.965 182.64 293.091 182.506 293.295C181.517 294.792 180.854 297.077 181.973 298.68C182.159 298.946 182.385 299.171 182.639 299.371C182.842 299.531 183.073 299.654 183.313 299.746C183.895 299.969 184.527 300.017 185.145 299.996C186.431 299.952 187.65 299.562 188.915 299.388C189.847 299.26 190.791 299.22 191.729 299.155C193.707 299.017 195.714 298.876 197.647 298.414C198.924 298.109 200.422 297.633 201.202 296.491C201.618 295.882 201.613 295.211 201.718 294.51C201.789 294.028 201.451 293.582 200.969 293.511C200.487 293.44 200.041 293.77 199.97 294.252C199.931 294.515 199.906 294.779 199.878 295.043C199.866 295.164 199.857 295.308 199.795 295.417C199.588 295.783 199.181 296.004 198.813 296.175C198.057 296.525 197.23 296.714 196.415 296.866C194.736 297.178 193.023 297.298 191.321 297.415C190.378 297.48 189.426 297.516 188.491 297.665C187.426 297.835 186.383 298.148 185.303 298.223C184.827 298.255 184.275 298.269 183.838 298.048C183.338 297.794 183.156 297.225 183.155 296.699C183.153 295.838 183.509 294.977 183.979 294.269C184.248 293.862 184.136 293.314 183.729 293.045C183.526 292.911 183.285 292.875 183.063 292.92Z" fill="#404040"/>
<path d="M191.129 270.581C190.649 270.528 190.226 270.95 190.181 271.521C189.93 274.755 189.79 277.983 189.769 281.231C189.765 281.804 190.152 282.275 190.635 282.279C191.117 282.284 191.513 281.814 191.517 281.241C191.538 278.051 191.675 274.883 191.921 271.707C191.965 271.136 191.61 270.633 191.129 270.581Z" fill="#404040"/>
<path d="M187.967 283.23C187.744 283.195 187.515 283.246 187.318 283.389C186.689 283.845 186.112 284.353 185.636 284.97C185.001 285.795 184.583 286.749 184.196 287.709C183.648 289.069 183.041 290.454 182.856 291.921C182.746 292.791 182.793 293.696 183.189 294.493C183.33 294.778 183.516 295.04 183.738 295.267C183.926 295.46 184.142 295.626 184.371 295.767C186.132 296.848 188.188 296.072 190.073 295.941C190.81 295.891 191.557 295.918 192.295 295.883C192.851 295.857 193.407 295.823 193.96 295.758C196.217 295.496 199.12 294.801 200.145 292.512C200.272 292.229 200.362 291.935 200.42 291.63C200.502 291.194 200.512 290.747 200.47 290.306C200.411 289.69 200.258 289.11 199.962 288.566C199.476 287.675 198.757 286.94 198.072 286.202C197.704 285.806 197.36 285.383 196.974 285.004C196.489 284.529 195.959 284.113 195.384 283.755C194.97 283.498 194.425 283.632 194.168 284.046C193.911 284.46 194.037 285.005 194.451 285.262C194.918 285.55 195.341 285.885 195.733 286.269C196.1 286.628 196.425 287.025 196.774 287.401C197.293 287.961 197.847 288.505 198.264 289.149C198.809 289.993 198.948 291.199 198.38 292.071C198.074 292.541 197.601 292.879 197.107 293.128C196.463 293.453 195.755 293.651 195.051 293.794C193.955 294.016 192.837 294.109 191.721 294.143C191.132 294.162 190.545 294.136 189.956 294.177C189.645 294.199 189.325 294.24 189.016 294.285C188.707 294.33 188.392 294.389 188.083 294.435C187.116 294.578 185.587 294.83 184.895 293.91C184.471 293.346 184.532 292.533 184.645 291.879C184.857 290.661 185.368 289.507 185.828 288.367C186.178 287.496 186.553 286.621 187.159 285.894C187.506 285.479 187.914 285.129 188.35 284.812C188.744 284.526 188.836 283.975 188.55 283.58C188.406 283.383 188.19 283.266 187.967 283.23Z" fill="#404040"/>
<path d="M188.483 283.006C188.147 283.079 187.867 283.346 187.8 283.705C187.71 284.184 188.028 284.647 188.507 284.737C189.383 284.901 190.261 285.056 191.155 285.062C191.828 285.066 192.491 284.982 193.152 284.862C193.632 284.775 193.947 284.309 193.86 283.83C193.773 283.35 193.316 283.035 192.836 283.122C192.283 283.223 191.735 283.301 191.171 283.297C190.383 283.291 189.604 283.15 188.832 283.006C188.712 282.983 188.594 282.981 188.483 283.006Z" fill="#404040"/>
<path d="M216.273 283.378C215.933 283.326 215.579 283.471 215.387 283.783C215.133 284.198 215.269 284.745 215.685 285C216.05 285.225 216.442 285.425 216.788 285.679C217.019 285.849 217.209 286.086 217.405 286.292C217.687 286.591 217.97 286.888 218.243 287.196C218.837 287.865 219.437 288.59 219.769 289.431C219.93 289.839 220.012 290.284 219.9 290.715C219.811 291.061 219.455 291.313 219.171 291.488C218.581 291.851 217.896 292.081 217.229 292.256C215.906 292.604 214.549 292.78 213.185 292.874C211.785 292.971 210.402 292.967 209.014 292.76C208.072 292.62 207.089 292.468 206.224 292.047C205.889 291.884 205.477 291.637 205.349 291.257C205.294 291.094 205.353 290.925 205.415 290.77C205.543 290.448 205.705 290.148 205.875 289.846C206.18 289.302 206.534 288.788 206.821 288.233C206.995 287.898 207.125 287.543 207.284 287.2C207.512 286.708 207.771 286.23 208.094 285.792C208.442 285.319 208.864 284.907 209.3 284.515C209.663 284.19 209.691 283.63 209.366 283.267C209.04 282.904 208.48 282.876 208.117 283.201C207.592 283.673 207.096 284.177 206.675 284.747C206.198 285.395 205.833 286.105 205.513 286.84C205.43 287.031 205.352 287.231 205.255 287.417C204.843 288.207 204.309 288.931 203.935 289.745C203.66 290.345 203.463 290.987 203.629 291.647C204.071 293.406 206.179 294.037 207.736 294.339C207.995 294.389 208.257 294.427 208.518 294.467C208.974 294.538 209.436 294.616 209.896 294.655C211.338 294.774 212.802 294.704 214.239 294.56C215.789 294.405 217.363 294.147 218.827 293.595C219.977 293.162 221.257 292.443 221.604 291.169C221.686 290.865 221.728 290.551 221.722 290.236C221.716 289.933 221.668 289.638 221.593 289.345C221.471 288.873 221.271 288.424 221.032 288.001C220.628 287.284 220.109 286.636 219.564 286.022C219.28 285.701 218.983 285.394 218.688 285.082C218.442 284.822 218.198 284.552 217.918 284.328C217.516 284.006 217.042 283.763 216.604 283.494C216.5 283.43 216.386 283.395 216.273 283.378Z" fill="#404040"/>
<path d="M194.018 225.144C193.795 225.179 193.588 225.297 193.444 225.494C189.242 231.237 188.075 238.462 186.335 245.197C185.959 246.653 185.554 248.096 185.061 249.517C184.214 251.965 183.191 254.354 182.464 256.843C182.28 257.473 182.108 258.098 181.94 258.732C181.173 261.622 180.389 265.233 182.548 267.731C182.825 268.052 183.134 268.343 183.48 268.588C185.885 270.295 188.982 269.56 191.712 269.529C193.842 269.505 195.92 270.128 198.055 269.978C199.133 269.903 200.182 269.637 201.219 269.346C202.38 269.019 203.546 268.643 204.756 268.555C205.417 268.507 206.088 268.554 206.746 268.622C208.287 268.779 209.799 269.142 211.332 269.354C211.869 269.428 212.423 269.506 212.964 269.537C213.604 269.574 214.254 269.539 214.895 269.537C215.34 269.536 215.782 269.589 216.227 269.587C217.059 269.584 217.808 269.395 218.433 268.83C218.659 268.625 218.866 268.396 219.041 268.147C219.214 267.901 219.359 267.631 219.482 267.356C220.04 266.111 220.119 264.689 220.048 263.344C219.925 261.031 219.342 258.751 218.616 256.56C217.997 254.691 217.158 252.916 216.186 251.207C214.638 248.487 212.82 245.921 211.407 243.125C209.832 240.004 208.741 236.681 207.42 233.452C207.062 232.576 206.696 231.687 206.296 230.83C205.897 229.975 205.441 229.141 205.014 228.299C204.794 227.865 204.267 227.696 203.832 227.916C203.398 228.136 203.221 228.664 203.441 229.098C203.859 229.923 204.307 230.741 204.698 231.579C205.086 232.41 205.433 233.269 205.78 234.118C207.119 237.391 208.237 240.752 209.834 243.915C211.983 248.172 215.077 251.934 216.71 256.451C217.516 258.683 218.157 261.057 218.283 263.436C218.339 264.495 218.308 265.647 217.867 266.632C217.766 266.858 217.641 267.081 217.484 267.273C217.358 267.428 217.213 267.585 217.034 267.681C216.724 267.847 216.325 267.834 215.986 267.822C215.62 267.81 215.261 267.772 214.895 267.772C214.288 267.773 213.67 267.807 213.064 267.772C212.818 267.758 212.576 267.716 212.331 267.689C211.446 267.591 210.569 267.447 209.693 267.29C207.84 266.957 205.925 266.605 204.041 266.857C202.051 267.123 200.189 268 198.189 268.197C196.011 268.411 193.865 267.739 191.687 267.764C191.121 267.77 190.554 267.818 189.989 267.856C187.981 267.988 185.358 268.296 183.879 266.582C182.934 265.486 182.822 263.979 182.955 262.595C183.079 261.317 183.406 260.069 183.738 258.832C184.017 257.79 184.32 256.757 184.67 255.736C185.32 253.843 186.08 251.991 186.734 250.1C187.35 248.324 187.834 246.504 188.291 244.681C189.062 241.608 189.742 238.514 190.672 235.483C191.644 232.313 192.898 229.224 194.867 226.535C195.155 226.141 195.069 225.59 194.676 225.303C194.479 225.158 194.241 225.11 194.018 225.144Z" fill="#404040"/>
<path d="M196.898 198.016C192.715 198.261 189.421 201.282 187.609 204.883C185.092 209.883 185.101 216.488 189.065 220.757C189.797 221.546 190.639 222.233 191.554 222.797C192.553 223.411 193.637 223.883 194.743 224.27C197.693 225.303 200.982 225.644 204.007 224.72C210.925 222.607 215.41 214.028 213.022 207.164C212.54 205.776 211.776 204.5 210.792 203.41C210.072 202.613 209.246 201.935 208.244 201.529C207.305 201.147 208.241 201.529 203.874 200.105C203.858 200.095 203.84 200.097 203.824 200.089C199.53 198.24 201.032 198.532 199.446 198.207C198.61 198.036 197.75 197.966 196.898 198.016ZM197.007 199.78C197.705 199.74 197.002 199.785 202.934 201.603C202.935 201.605 202.94 201.602 202.942 201.603C202.955 201.611 202.97 201.613 202.983 201.62C205.344 202.597 204.531 202.417 205.406 202.619C206.131 202.786 206.885 202.886 207.578 203.168C208.408 203.506 209.065 204.102 209.643 204.775C210.394 205.649 210.979 206.658 211.358 207.747C212.008 209.618 212.044 211.655 211.632 213.582C210.739 217.767 207.677 221.761 203.491 223.038C200.673 223.898 197.605 223.478 194.892 222.447C194.06 222.131 193.238 221.757 192.478 221.29C191.698 220.81 190.988 220.23 190.364 219.559C186.735 215.651 187.016 209.435 189.532 205.025C191.091 202.29 193.744 199.971 197.007 199.78Z" fill="#404040"/>
</svg>
