<?xml version="1.0" encoding="UTF-8" standalone="no"?><!DOCTYPE svg PUBLIC "-//W3C//DTD SVG 1.1//EN" "http://www.w3.org/Graphics/SVG/1.1/DTD/svg11.dtd"><svg width="794px" height="607px" version="1.1" xmlns="http://www.w3.org/2000/svg" xmlns:xlink="http://www.w3.org/1999/xlink" xml:space="preserve" xmlns:serif="http://www.serif.com/" style="fill-rule:evenodd;clip-rule:evenodd;stroke-linejoin:round;stroke-miterlimit:2;"><g transform="matrix(1,0,0,1,-453.747,-397.788)"><g id="Layer1"><g><path d="M548.456,416.005C460.874,423.338 469.509,564.412 563.618,561.831C609.853,560.563 671.616,482.375 627.742,441.485C618.314,432.698 602.374,434.613 590.937,430.163C578.333,425.257 567.972,415.166 554.2,413.539" style="fill:none;stroke:rgb(52,52,52);stroke-width:11.73px;stroke-linecap:round;stroke-miterlimit:0;"/><path d="M527.48,575.794C528.143,577.877 513.708,599.107 510.182,607.57C504.096,622.175 459.95,791.258 459.95,795.087C459.95,807.418 464.558,817.162 473.998,824.886C491.245,838.997 521.547,823.259 539.555,820.416C559.446,817.275 576.718,820.153 595.746,816.585C618.544,812.31 647.314,830.757 668.114,822.757C679.609,818.336 679.608,803.795 679.608,793.385C679.608,705.174 637.108,721.208 609.794,646.095C603.875,629.817 600.097,614.331 595.959,597.779C594.512,591.989 591.92,587.572 589.361,582.454C588.659,581.049 587.457,575.016 587.871,575.43" style="fill:none;stroke:rgb(52,52,52);stroke-width:11.73px;stroke-linecap:round;stroke-miterlimit:0;"/><path d="M512.572,831.631C509.871,832.31 509.756,877.892 509.756,890.23" style="fill:none;stroke:rgb(52,52,52);stroke-width:11.73px;stroke-linecap:round;stroke-miterlimit:0;"/><path d="M633.139,829.941C636.944,828.71 632.605,837.922 632.356,841.914C631.593,854.116 629.802,866.166 629.802,878.31" style="fill:none;stroke:rgb(52,52,52);stroke-width:11.73px;stroke-linecap:round;stroke-miterlimit:0;"/><path d="M491.249,913.638C491.947,913.407 508.751,917.079 515.29,915.771C517.767,915.276 530.271,906.341 531.679,907.045C545.933,914.172 565.757,951.661 554.454,965.79C539.64,984.307 436.404,982.431 475.914,925.988C478.254,922.644 486.975,910.876 491.877,910.876" style="fill:none;stroke:rgb(52,52,52);stroke-width:11.73px;stroke-linecap:round;stroke-miterlimit:0;"/><path d="M466.302,941.691C463.431,941.353 466.445,947.499 466.036,950.361C464.69,959.779 455.108,984.06 462.205,992.93C467.948,1000.11 552.641,1001.49 560.327,988.035C568.738,973.315 559.05,962.987 559.05,949.297" style="fill:none;stroke:rgb(52,52,52);stroke-width:11.73px;stroke-linecap:round;stroke-miterlimit:0;"/><path d="M622.125,899.225C621.493,899.194 651.232,907.7 651.232,893.252" style="fill:none;stroke:rgb(52,52,52);stroke-width:11.73px;stroke-linecap:round;stroke-miterlimit:0;"/><path d="M622.125,898.218C618.142,893.989 617.96,909.075 615.473,914.324C611.943,921.777 592.323,951.034 596.743,959.873C601.619,969.625 669.655,969.7 681.669,965.194C703.902,956.857 688.407,931.337 675.922,921.348C672.297,918.448 669.278,915.504 666.344,911.983C664.69,909.999 659.835,903.984 661.661,905.81" style="fill:none;stroke:rgb(52,52,52);stroke-width:11.73px;stroke-linecap:round;stroke-miterlimit:0;"/><path d="M595.559,952.499C594.294,953.354 589.422,963.062 588.442,967.961C581.984,1000.25 682.834,991.408 698.909,982.222C706.047,978.144 706.134,958.439 698.058,954.978" style="fill:none;stroke:rgb(52,52,52);stroke-width:11.73px;stroke-linecap:round;stroke-miterlimit:0;"/><g transform="matrix(0.998231,-0.0594509,0.0594509,0.998231,-27.1072,32.9891)"><ellipse cx="540.852" cy="472.051" rx="6.711" ry="6.637" style="fill:rgb(52,52,52);"/></g><g transform="matrix(0.774634,0,0,0.867153,129.401,63.2497)"><ellipse cx="581.825" cy="468.367" rx="7.644" ry="7.742" style="fill:rgb(52,52,52);"/></g></g><g transform="matrix(1,0,0,1,267.744,-0.838658)"><path d="M548.456,416.005C460.874,423.338 469.509,564.412 563.618,561.831C609.853,560.563 671.616,482.375 627.742,441.485C618.314,432.698 602.374,434.613 590.937,430.163C578.333,425.257 567.972,415.166 554.2,413.539" style="fill:none;stroke:rgb(52,52,52);stroke-width:11.73px;stroke-linecap:round;stroke-miterlimit:0;"/><path d="M527.48,575.794C528.143,577.877 513.708,599.107 510.182,607.57C504.096,622.175 459.95,791.258 459.95,795.087C459.95,807.418 464.558,817.162 473.998,824.886C491.245,838.997 521.547,823.259 539.555,820.416C559.446,817.275 576.718,820.153 595.746,816.585C618.544,812.31 647.314,830.757 668.114,822.757C679.609,818.336 679.608,803.795 679.608,793.385C679.608,705.174 637.108,721.208 609.794,646.095C603.875,629.817 600.097,614.331 595.959,597.779C594.512,591.989 591.92,587.572 589.361,582.454C588.659,581.049 587.457,575.016 587.871,575.43" style="fill:none;stroke:rgb(52,52,52);stroke-width:11.73px;stroke-linecap:round;stroke-miterlimit:0;"/><path d="M512.572,831.631C509.871,832.31 509.756,877.892 509.756,890.23" style="fill:none;stroke:rgb(52,52,52);stroke-width:11.73px;stroke-linecap:round;stroke-miterlimit:0;"/><path d="M633.139,829.941C636.944,828.71 632.605,837.922 632.356,841.914C631.593,854.116 629.802,866.166 629.802,878.31" style="fill:none;stroke:rgb(52,52,52);stroke-width:11.73px;stroke-linecap:round;stroke-miterlimit:0;"/><path d="M491.249,913.638C491.947,913.407 508.751,917.079 515.29,915.771C517.767,915.276 530.271,906.341 531.679,907.045C545.933,914.172 565.757,951.661 554.454,965.79C539.64,984.307 436.404,982.431 475.914,925.988C478.254,922.644 486.975,910.876 491.877,910.876" style="fill:none;stroke:rgb(52,52,52);stroke-width:11.73px;stroke-linecap:round;stroke-miterlimit:0;"/><path d="M466.302,941.691C463.431,941.353 466.445,947.499 466.036,950.361C464.69,959.779 455.108,984.06 462.205,992.93C467.948,1000.11 552.641,1001.49 560.327,988.035C568.738,973.315 559.05,962.987 559.05,949.297" style="fill:none;stroke:rgb(52,52,52);stroke-width:11.73px;stroke-linecap:round;stroke-miterlimit:0;"/><path d="M622.125,899.225C621.493,899.194 651.232,907.7 651.232,893.252" style="fill:none;stroke:rgb(52,52,52);stroke-width:11.73px;stroke-linecap:round;stroke-miterlimit:0;"/><path d="M622.125,898.218C618.142,893.989 617.96,909.075 615.473,914.324C611.943,921.777 592.323,951.034 596.743,959.873C601.619,969.625 669.655,969.7 681.669,965.194C703.902,956.857 688.407,931.337 675.922,921.348C672.297,918.448 669.278,915.504 666.344,911.983C664.69,909.999 659.835,903.984 661.661,905.81" style="fill:none;stroke:rgb(52,52,52);stroke-width:11.73px;stroke-linecap:round;stroke-miterlimit:0;"/><path d="M595.559,952.499C594.294,953.354 589.422,963.062 588.442,967.961C581.984,1000.25 682.834,991.408 698.909,982.222C706.047,978.144 706.134,958.439 698.058,954.978" style="fill:none;stroke:rgb(52,52,52);stroke-width:11.73px;stroke-linecap:round;stroke-miterlimit:0;"/><g transform="matrix(0.998231,-0.0594509,0.0594509,0.998231,-27.1072,32.9891)"><ellipse cx="540.852" cy="472.051" rx="6.711" ry="6.637" style="fill:rgb(52,52,52);"/></g><g transform="matrix(0.774634,0,0,0.867153,129.401,63.2497)"><ellipse cx="581.825" cy="468.367" rx="7.644" ry="7.742" style="fill:rgb(52,52,52);"/></g></g><g transform="matrix(1,0,0,1,537.291,-9.88505)"><path d="M548.456,416.005C460.874,423.338 469.509,564.412 563.618,561.831C609.853,560.563 671.616,482.375 627.742,441.485C618.314,432.698 602.374,434.613 590.937,430.163C578.333,425.257 567.972,415.166 554.2,413.539" style="fill:none;stroke:rgb(52,52,52);stroke-width:11.73px;stroke-linecap:round;stroke-miterlimit:0;"/><path d="M527.48,575.794C528.143,577.877 513.708,599.107 510.182,607.57C504.096,622.175 459.95,791.258 459.95,795.087C459.95,807.418 464.558,817.162 473.998,824.886C491.245,838.997 521.547,823.259 539.555,820.416C559.446,817.275 576.718,820.153 595.746,816.585C618.544,812.31 647.314,830.757 668.114,822.757C679.609,818.336 679.608,803.795 679.608,793.385C679.608,705.174 637.108,721.208 609.794,646.095C603.875,629.817 600.097,614.331 595.959,597.779C594.512,591.989 591.92,587.572 589.361,582.454C588.659,581.049 587.457,575.016 587.871,575.43" style="fill:none;stroke:rgb(52,52,52);stroke-width:11.73px;stroke-linecap:round;stroke-miterlimit:0;"/><path d="M512.572,831.631C509.871,832.31 509.756,877.892 509.756,890.23" style="fill:none;stroke:rgb(52,52,52);stroke-width:11.73px;stroke-linecap:round;stroke-miterlimit:0;"/><path d="M633.139,829.941C636.944,828.71 632.605,837.922 632.356,841.914C631.593,854.116 629.802,866.166 629.802,878.31" style="fill:none;stroke:rgb(52,52,52);stroke-width:11.73px;stroke-linecap:round;stroke-miterlimit:0;"/><path d="M491.249,913.638C491.947,913.407 508.751,917.079 515.29,915.771C517.767,915.276 530.271,906.341 531.679,907.045C545.933,914.172 565.757,951.661 554.454,965.79C539.64,984.307 436.404,982.431 475.914,925.988C478.254,922.644 486.975,910.876 491.877,910.876" style="fill:none;stroke:rgb(52,52,52);stroke-width:11.73px;stroke-linecap:round;stroke-miterlimit:0;"/><path d="M466.302,941.691C463.431,941.353 466.445,947.499 466.036,950.361C464.69,959.779 455.108,984.06 462.205,992.93C467.948,1000.11 552.641,1001.49 560.327,988.035C568.738,973.315 559.05,962.987 559.05,949.297" style="fill:none;stroke:rgb(52,52,52);stroke-width:11.73px;stroke-linecap:round;stroke-miterlimit:0;"/><path d="M622.125,899.225C621.493,899.194 651.232,907.7 651.232,893.252" style="fill:none;stroke:rgb(52,52,52);stroke-width:11.73px;stroke-linecap:round;stroke-miterlimit:0;"/><path d="M622.125,898.218C618.142,893.989 617.96,909.075 615.473,914.324C611.943,921.777 592.323,951.034 596.743,959.873C601.619,969.625 669.655,969.7 681.669,965.194C703.902,956.857 688.407,931.337 675.922,921.348C672.297,918.448 669.278,915.504 666.344,911.983C664.69,909.999 659.835,903.984 661.661,905.81" style="fill:none;stroke:rgb(52,52,52);stroke-width:11.73px;stroke-linecap:round;stroke-miterlimit:0;"/><path d="M595.559,952.499C594.294,953.354 589.422,963.062 588.442,967.961C581.984,1000.25 682.834,991.408 698.909,982.222C706.047,978.144 706.134,958.439 698.058,954.978" style="fill:none;stroke:rgb(52,52,52);stroke-width:11.73px;stroke-linecap:round;stroke-miterlimit:0;"/><g transform="matrix(0.998231,-0.0594509,0.0594509,0.998231,-27.1072,32.9891)"><ellipse cx="540.852" cy="472.051" rx="6.711" ry="6.637" style="fill:rgb(52,52,52);"/></g><g transform="matrix(0.774634,0,0,0.867153,129.401,63.2497)"><ellipse cx="581.825" cy="468.367" rx="7.644" ry="7.742" style="fill:rgb(52,52,52);"/></g></g></g></g></svg>